<svg xmlns="http://www.w3.org/2000/svg" data-name="Layer 1" viewBox="0 0 128 128" id="Assessing"><path d="M74.95361 99.38574a8.8084 8.8084 0 0 1-.17578-1.832 6.69677 6.69677 0 0 0-3.97021-6.8457 8.59948 8.59948 0 0 1-1.47217-1.043A8.5938 8.5938 0 0 1 68.293 88.19336a8.33023 8.33023 0 0 0-2.78955-3.11426 8.30139 8.30139 0 0 0-4.05615-.85742 8.71614 8.71614 0 0 1-1.833-.17578 8.30924 8.30924 0 0 1-1.59033-.7334A8.38143 8.38143 0 0 0 54 82a8.38143 8.38143 0 0 0-4.02393 1.3125 8.38051 8.38051 0 0 1-1.59033.73438 8.84252 8.84252 0 0 1-1.83154.1748 8.27717 8.27717 0 0 0-4.05811.8584A8.32014 8.32014 0 0 0 39.708 88.19336a8.63623 8.63623 0 0 1-1.04248 1.4707 8.62124 8.62124 0 0 1-1.4707 1.042 8.3298 8.3298 0 0 0-3.11475 2.79 8.28887 8.28887 0 0 0-.85791 4.05762 8.8084 8.8084 0 0 1-.17578 1.832 8.403 8.403 0 0 1-.7334 1.59082 6.82108 6.82108 0 0 0 0 8.04688 8.403 8.403 0 0 1 .7334 1.59082 8.8084 8.8084 0 0 1 .17578 1.832 8.29264 8.29264 0 0 0 .85742 4.05762 8.33456 8.33456 0 0 0 3.11279 2.78809 8.59948 8.59948 0 0 1 1.47217 1.043 8.5938 8.5938 0 0 1 1.04248 1.47168 8.33023 8.33023 0 0 0 2.78955 3.11426 8.30139 8.30139 0 0 0 4.05615.85742 8.71614 8.71614 0 0 1 1.833.17578 8.30924 8.30924 0 0 1 1.59033.7334A8.38143 8.38143 0 0 0 54 128a8.38143 8.38143 0 0 0 4.02393-1.3125 8.38051 8.38051 0 0 1 1.59033-.73437 8.84253 8.84253 0 0 1 1.83154-.1748 8.27717 8.27717 0 0 0 4.05811-.8584 8.32014 8.32014 0 0 0 2.78809-3.11328 8.63623 8.63623 0 0 1 1.04248-1.4707 8.62124 8.62124 0 0 1 1.4707-1.042 6.70062 6.70062 0 0 0 3.97266-6.84766 8.8084 8.8084 0 0 1 .17578-1.832 8.403 8.403 0 0 1 .7334-1.59082 6.82108 6.82108 0 0 0 0-8.04687A8.403 8.403 0 0 1 74.95361 99.38574zM64.41406 100.4209L52.42871 112.40723a1.99927 1.99927 0 0 1-2.82812 0l-6.01465-6.01465a1.99979 1.99979 0 0 1 2.82813-2.82812l4.60059 4.60059L61.58594 97.59277a1.99979 1.99979 0 0 1 2.82813 2.82812zM118 40A24 24 0 1 0 88.73706 63.41162L87.29688 87.89648A6.70952 6.70952 0 0 0 93.99512 95h.00977a6.70952 6.70952 0 0 0 6.69824-7.10352L99.26294 63.41162A24.03712 24.03712 0 0 0 118 40zM94 60a20 20 0 1 1 20-20A20.0226 20.0226 0 0 1 94 60zM18 97a1.99986 1.99986 0 0 0 1.78809-1.10352l6-11.96973A2.004 2.004 0 0 0 26 83.03027V21.002a8 8 0 1 0-16 0V83.03027a2.004 2.004 0 0 0 .21191.89648l6 11.96973A1.99986 1.99986 0 0 0 18 97zM14 31h8V59H14zm0 51.55664V82h8v.55664l-4 7.98047z" fill="#ee5c30" class="color000000 svgShape"></path><path d="M83.30371,87.66211l1.25391-21.31152a27.95816,27.95816,0,0,1-10.23273-6.52625c.05688.05664.10693.11951.16425.17566H33.5a2,2,0,0,1,0-4H71.08087c.02844.04065.06244.077.09106.11743a28.31037,28.31037,0,0,1-3.36737-6.36914c.03125.083.05493.16895.087.25171H33.5a2,2,0,0,1,0-4H66.67615l.0097.0368A27.45578,27.45578,0,0,1,66,40H33.5a2,2,0,0,1,0-4H66.29022l-.00012.00122A27.75191,27.75191,0,0,1,67.85291,30H33.5a2,2,0,0,1,0-4H69.76691a28.17245,28.17245,0,0,1,4.66376-6H33.5a2,2,0,0,1,0-4h41a2.0001,2.0001,0,0,1,2,2c0,.06158-.0127.11963-.01813.17981A27.85843,27.85843,0,0,1,91.5,12.11749V6a6.00656,6.00656,0,0,0-6-6h-63a6.00656,6.00656,0,0,0-6,6V9.10413A11.926,11.926,0,0,1,30,21.002V83.03027a6.03594,6.03594,0,0,1-.63428,2.68555l-6.002,11.97266A5.96751,5.96751,0,0,1,18,101a6.04317,6.04317,0,0,1-1.5-.19678V102a6.00656,6.00656,0,0,0,6,6h4.98682A9.793,9.793,0,0,1,27,105a12.15415,12.15415,0,0,1,1.7915-5.92187c.10791-.19922.31006-.57422.394-.75781.01416-.15918.02979-.627.03857-.8877a10.5579,10.5579,0,0,1,5.8667-10.12891c.1958-.12109.56445-.34863.74121-.47461.127-.17773.355-.54785.47266-.73828a12.09321,12.09321,0,0,1,4.187-4.47266,12.04028,12.04028,0,0,1,5.93311-1.39453c.25537-.00781.69482-.02246.9082-.04492.18848-.08691.55273-.2832.74023-.38379A12.163,12.163,0,0,1,54,78a12.146,12.146,0,0,1,5.92041,1.792c.19336.10352.55762.29883.74658.38672.20947.02246.63721.03711.88086.04492a12.09448,12.09448,0,0,1,5.95752,1.39258,12.10966,12.10966,0,0,1,4.18994,4.47363c.11865.19238.34814.56445.47461.74121.17334.124.53711.34863.72461.46484A10.55386,10.55386,0,0,1,78.77588,97.4248c.0083.25586.02295.69531.04541.91016.0874.1875.28174.54785.38184.73438A12.16316,12.16316,0,0,1,81,105a9.79808,9.79808,0,0,1-.48657,3H85.5a6.00656,6.00656,0,0,0,6-6V98.6908a10.67332,10.67332,0,0,1-8.19629-11.02869ZM74.5,70h-41a2,2,0,0,1,0-4h41a2,2,0,0,1,0,4Z" fill="#ee5c30" class="color000000 svgShape"></path></svg>