<svg xmlns="http://www.w3.org/2000/svg" viewBox="0 0 64 64"><polygon fill="#ee5c30" points="32 53 32 61 8 54 8 46" class="colordb535b svgShape"></polygon><polygon fill="#ee5c30" points="56 46 56 54 32 61 32 53" class="colordb535b svgShape"></polygon><polygon fill="#f48260" points="32 39 56 46 32 53 8 46" class="color8360f4 svgShape"></polygon><polygon fill="#ed8465" points="61 9 55 9 55 3" class="color6599ed svgShape"></polygon><polygon fill="#ed8465" points="40 9 34 9 34 3" class="color6599ed svgShape"></polygon><polygon fill="#ed8465" points="19 9 13 9 13 3" class="color6599ed svgShape"></polygon><polygon fill="#df8a71" points="45 25 45 3 55 3 55 9 61 9 61 25 53 25" class="color71d2df svgShape"></polygon><polygon fill="#df8a71" points="24 25 24 3 34 3 34 9 40 9 40 25 32 25" class="color71d2df svgShape"></polygon><polygon fill="#df8a71" points="3 25 3 3 13 3 13 9 19 9 19 25 11 25" class="color71d2df svgShape"></polygon><rect width="10" height="2" x="27" y="12" fill="#1a1a1a" class="color1a1a1a svgShape"></rect><rect width="10" height="2" x="27" y="16" fill="#1a1a1a" class="color1a1a1a svgShape"></rect><path fill="#1a1a1a" d="M57,54v-8c0-0.444-0.293-0.835-0.72-0.96L33,38.25V26h7c0.553,0,1-0.448,1-1V9 c0-0.265-0.105-0.52-0.293-0.707l-6-6C34.52,2.105,34.266,2,34,2H24c-0.553,0-1,0.448-1,1v22c0,0.552,0.447,1,1,1h7v12.25 L7.72,45.04C7.293,45.165,7,45.556,7,46v8c0,0.444,0.293,0.835,0.72,0.96l24,7C31.812,61.987,31.905,62,32,62s0.188-0.013,0.28-0.04 l24-7C56.707,54.835,57,54.444,57,54z M35,5.414L37.586,8H35V5.414z M25,4h8v5c0,0.552,0.447,1,1,1h5v14H25V4z M31,40.333v5.253 l-2.293-2.293l-1.414,1.414l4,4C31.488,48.902,31.744,49,32,49s0.512-0.098,0.707-0.293l4-4l-1.414-1.414L33,45.586v-5.253 L52.429,46L32,51.958L11.571,46L31,40.333z M9,47.333l22,6.417v5.917L9,53.25V47.333z M33,59.667V53.75l22-6.417v5.917L33,59.667z" class="color1a1a1a svgShape"></path><rect width="4" height="2" x="27" y="8" fill="#1a1a1a" class="color1a1a1a svgShape"></rect><path fill="#1a1a1a" d="M3,26h7c0,2.757,2.243,5,5,5h3c1.654,0,3,1.346,3,3v1.586l-2.293-2.293l-1.414,1.414l4,4 C21.488,38.902,21.744,39,22,39s0.512-0.098,0.707-0.293l4-4l-1.414-1.414L23,35.586V34c0-2.757-2.243-5-5-5h-3 c-1.654,0-3-1.346-3-3h7c0.553,0,1-0.448,1-1V9c0-0.265-0.105-0.52-0.293-0.707l-6-6C13.52,2.105,13.266,2,13,2H3 C2.447,2,2,2.448,2,3v22C2,25.552,2.447,26,3,26z M14,5.414L16.586,8H14V5.414z M4,4h8v5c0,0.552,0.447,1,1,1h5v14H4V4z" class="color1a1a1a svgShape"></path><rect width="10" height="2" x="6" y="12" fill="#1a1a1a" class="color1a1a1a svgShape"></rect><rect width="10" height="2" x="6" y="16" fill="#1a1a1a" class="color1a1a1a svgShape"></rect><rect width="10" height="2" x="6" y="20" fill="#1a1a1a" class="color1a1a1a svgShape"></rect><rect width="4" height="2" x="6" y="8" fill="#1a1a1a" class="color1a1a1a svgShape"></rect><path fill="#1a1a1a" d="M62,25V9c0-0.265-0.105-0.52-0.293-0.707l-6-6C55.52,2.105,55.266,2,55,2H45c-0.553,0-1,0.448-1,1v22 c0,0.552,0.447,1,1,1h7c0,1.654-1.346,3-3,3h-3c-2.757,0-5,2.243-5,5v1.586l-2.293-2.293l-1.414,1.414l4,4 C41.488,38.902,41.744,39,42,39s0.512-0.098,0.707-0.293l4-4l-1.414-1.414L43,35.586V34c0-1.654,1.346-3,3-3h3c2.757,0,5-2.243,5-5 h7C61.553,26,62,25.552,62,25z M56,5.414L58.586,8H56V5.414z M46,24V4h8v5c0,0.552,0.447,1,1,1h5v14H46z" class="color1a1a1a svgShape"></path><rect width="10" height="2" x="48" y="12" fill="#1a1a1a" class="color1a1a1a svgShape"></rect><rect width="10" height="2" x="48" y="16" fill="#1a1a1a" class="color1a1a1a svgShape"></rect><rect width="10" height="2" x="48" y="20" fill="#1a1a1a" class="color1a1a1a svgShape"></rect><rect width="4" height="2" x="48" y="8" fill="#1a1a1a" class="color1a1a1a svgShape"></rect><rect width="2" height="2" x="27" y="20" fill="#1a1a1a" class="color1a1a1a svgShape"></rect><rect width="2" height="2" x="31" y="20" fill="#1a1a1a" class="color1a1a1a svgShape"></rect><rect width="2" height="2" x="35" y="20" fill="#1a1a1a" class="color1a1a1a svgShape"></rect></svg>