<svg xmlns="http://www.w3.org/2000/svg" viewBox="0 0 70 70" id="Gap"><circle cx="40.911" cy="40.728" r="25.428" fill="#fef1ed" class="coloredf8fe svgShape"></circle><circle cx="21.638" cy="48.578" r="17.579" fill="#fef1ed" class="coloredf8fe svgShape"></circle><circle cx="24.022" cy="24.735" r="20.361" fill="#fef1ed" class="coloredf8fe svgShape"></circle><circle cx="48.76" cy="21.422" r="17.579" fill="#fef1ed" class="coloredf8fe svgShape"></circle><path fill="#f1d2c9" d="M43.482 15.032c.204-.077.43-.159.648-.227 3.257-1.032 5.752-3.904 5.752-3.904l10.683 7.459-2.18 3.122a19.093 19.093 0 0 1-6.52 5.834l-.097.053-7.378 4.916c-2.004 1.598-5.49 3.888-7.202 1.933-1.587-1.817.653-4.068 2.307-5.35l-3.028-2.114 1.316-5.204c.815-2.927 2.872-5.416 5.7-6.518z" class="colorf1d1c9 svgShape"></path><path fill="#fde1d9" d="M44.637 15.838c.204-.077.43-.158.648-.226 3.257-1.032 5.752-3.905 5.752-3.905l9.528 6.653-2.18 3.122a19.093 19.093 0 0 1-6.52 5.834l-.097.053-7.378 4.916c-2.004 1.598-5.49 3.888-7.202 1.933-1.587-1.817.653-4.068 2.307-5.35l-1.873-1.308 1.316-5.204c.815-2.926 2.872-5.415 5.7-6.518z" class="colorfde1d9 svgShape"></path><path fill="#d6bab1" d="m65.172 14.138-3.49 4.998L48.466 9.91l2.48-3.539 1.012-1.45z" class="colorb1c6d6 svgShape"></path><path fill="#cfa79b" d="m64.15 15.589-2.468 3.547L48.466 9.91l2.48-3.539z" class="color9bb8cf svgShape"></path><path fill="#ffffff" d="M52.007 8.665a.989.989 0 0 1 1.385-.247c.449.313.564.931.247 1.386a.999.999 0 0 1-1.386.246.994.994 0 0 1-.246-1.385z" class="colorffffff svgShape"></path><path fill="#ee5c30" d="M37.09 34.984a3.215 3.215 0 0 0 3.106 4.027c1.03 0 1.942-.479 2.52-1.237h1.01v7.233H24.856v-7.233h1.01a3.148 3.148 0 0 0 2.52 1.237 3.215 3.215 0 0 0 3.106-4.027 3.164 3.164 0 0 0-2.41-2.312c-1.31-.271-2.51.235-3.215 1.165h-1.011v-7.224h18.872v7.224h-1.012c-.704-.93-1.905-1.436-3.214-1.165a3.164 3.164 0 0 0-2.411 2.312z" class="colorf5928f svgShape"></path><path fill="#f4bcab" d="M24.855 26.611h18.872v2.655H24.855zM24.855 42.352h18.872v2.655H24.855z" class="colorf4abab svgShape"></path><path fill="#fdd6ca" d="M28.385 58.919a3.148 3.148 0 0 1-2.52-1.237h-1.01v7.233H7.644a1.811 1.811 0 0 1-1.806-1.806V48.327c0-.993.813-1.806 1.806-1.806h17.21v7.224h1.012c.704-.93 1.905-1.436 3.215-1.165a3.164 3.164 0 0 1 2.41 2.312 3.215 3.215 0 0 1-3.106 4.027z" class="colorfde5ca svgShape"></path><path fill="#fff0eb" d="M8.457 48.327V63.11c0 .993.812 1.806 1.805 1.806H7.644a1.811 1.811 0 0 1-1.806-1.806V48.327c0-.993.813-1.806 1.806-1.806h2.618c-.993 0-1.805.813-1.805 1.806z" class="colorfff8eb svgShape"></path><path fill="#f5ece9" d="M62.743 48.327V63.11c0 .993-.812 1.806-1.806 1.806h-17.21v-7.233h-1.012a3.148 3.148 0 0 1-2.519 1.237 3.215 3.215 0 0 1-3.106-4.027 3.164 3.164 0 0 1 2.41-2.312c1.31-.27 2.511.235 3.215 1.165h1.012v-7.224h17.21c.994 0 1.806.813 1.806 1.806z" class="colore9f1f5 svgShape"></path><path fill="#f7e1da" d="M62.743 48.327V63.11c0 .993-.812 1.806-1.806 1.806H58.32c.993 0 1.806-.813 1.806-1.806V48.327c0-.993-.813-1.806-1.806-1.806h2.618c.994 0 1.806.813 1.806 1.806z" class="colordaeff7 svgShape"></path><path fill="#fde1d9" d="m51.771 27.367-7.384 4.917c-2 1.6-5.483 3.887-7.198 1.93-2.375-2.709 3.79-6.386 3.79-6.386a16.801 16.801 0 0 0 4.075-4.1l.887-1.27h-.004" class="colorfde1d9 svgShape"></path><path fill="#9e7163" d="m65.456 13.725-1.679-1.171-.572.82 1.269.886-2.915 4.174-.69-.482c-.004-.002-.005-.006-.009-.008l-3.187-2.223-8.501-5.935 2.915-4.175 4.538 3.168a8.692 8.692 0 0 0 3.886 1.492l.123-.992a7.683 7.683 0 0 1-3.437-1.32L52.25 4.505a.502.502 0 0 0-.696.124l-3.487 4.995a.5.5 0 0 0 .124.696l1.418.99-.003.004 7.499 5.23 2.773 1.936-1.9 2.72c-.324.467-.674.921-1.038 1.35-.845.998-1.174 2.27-.904 3.492l.035.154.976-.217-.034-.154c-.202-.913.049-1.871.69-2.628.384-.453.752-.932 1.096-1.425l1.899-2.72.7.489a.502.502 0 0 0 .696-.124l3.487-4.995a.498.498 0 0 0-.124-.697z" class="color63809e svgShape"></path><path fill="#9e7163" d="m60.52 11.5.572-.821 1.344.937-.573.82zM27.718 44.507h-2.363v-6.234h.274a3.636 3.636 0 0 0 2.756 1.238 3.69 3.69 0 0 0 2.928-1.434 3.72 3.72 0 0 0 .664-3.215 3.645 3.645 0 0 0-2.795-2.68c-1.352-.28-2.686.162-3.553 1.155h-.274v-6.224h1.572v-1h-2.572v8.224h1.76l.15-.198c.622-.822 1.659-1.195 2.717-.977a2.674 2.674 0 0 1 2.024 1.943c.21.835.034 1.695-.481 2.357a2.698 2.698 0 0 1-2.14 1.049 2.636 2.636 0 0 1-2.12-1.04l-.15-.198h-1.76v8.234h3.363v-1z" class="color63809e svgShape"></path><path fill="#9e7163" d="M37.858 27.117h3.25c-.12.09-.25.19-.38.28-.267 0-3.17 2.05-4.16 3.92-.05.09-.09.17-.13.26-.05.12-.1.24-.14.35l-.03.12c-.04.12-.07.23-.08.35-.01.01-.01.02-.01.03v.01c-.02.05-.02.11-.03.16-.02.25-.01.48.04.71.08.41.26.79.55 1.15a3.706 3.706 0 0 0 3.46 5.05c1.07 0 2.06-.44 2.75-1.23h.28v6.23h-13.01v1h14.01v-8.23h-1.76l-.15.19c-.5.66-1.28 1.04-2.12 1.04-.84 0-1.62-.38-2.14-1.05-.51-.65-.68-1.49-.49-2.3 1.49.783 3.403-.016 4.85-.88l.05.06h1.76v-1.3c1.746-1.28 10.273-6.826 10.6-7.08l-.62-.79c-1.259.991-2.165 1.458-2.68 1.77-11.197 7.635-8.436 5.712-8.94 6.04h-.01c-1.249.818-3.252 1.968-4.57 1.27 0-.01-.01-.01-.02-.01v-.01c-1.095-.548-1.013-1.951-.23-2.93v-.02c.842-1.18 2.249-2.23 3.47-3.02.13 0 2.541-1.79 4.24-4.24l.88-1.27c.12-.17.12-.4 0-.57a.49.49 0 0 0-.53-.2c-.12.03-.22.1-.29.2l-.89 1.26a16.6 16.6 0 0 1-2.33 2.68h-5.16l1.12-4.43c.79-2.86 2.8-5.17 5.39-6.19.2-.07.39-.15.63-.21 1.87-.6 3.5-1.78 4.53-2.66l-.65-.76c-.96.82-2.47 1.92-4.17 2.46-.24.07-.47.15-.7.24-2.88 1.13-5.13 3.69-6 6.86l-1.19 4.69h-7.04v1h8.79zm-8.676 24.974c-1.352-.282-2.686.16-3.553 1.154h-.274v-7.224H12.099v1h12.256v7.224h1.76l.15-.198c.622-.822 1.659-1.197 2.717-.977a2.674 2.674 0 0 1 2.024 1.944 2.714 2.714 0 0 1-2.621 3.405 2.636 2.636 0 0 1-2.12-1.04l-.15-.197h-1.76v3.257h1v-2.257h.274a3.636 3.636 0 0 0 2.756 1.237c2.393 0 4.195-2.246 3.592-4.649a3.645 3.645 0 0 0-2.795-2.68zM6.338 48.327c0-.72.586-1.306 1.306-1.306a5.31 5.31 0 0 0 3.405-1.237l.957-.8-.643-.768-.957.801a4.308 4.308 0 0 1-2.762 1.004 2.308 2.308 0 0 0-2.306 2.306v9.288h1v-9.288zm18.017 16.088H7.644c-.72 0-1.306-.586-1.306-1.306v-2.994h-1v2.994a2.308 2.308 0 0 0 2.306 2.306h17.71V62.62h-1v1.794zM60.938 46.02h-6.085a4.597 4.597 0 0 1-4.273-2.87l-.926.376a5.592 5.592 0 0 0 5.199 3.494h6.085c.72 0 1.305.586 1.305 1.306v2.496h1v-2.496a2.308 2.308 0 0 0-2.305-2.306zm1.305 17.088c0 .72-.586 1.306-1.305 1.306h-1.875v1h1.875a2.308 2.308 0 0 0 2.305-2.306V52.823h-1V63.11zm-18.016-5.927h-1.76l-.15.197a2.636 2.636 0 0 1-2.12 1.04 2.714 2.714 0 0 1-2.622-3.406 2.677 2.677 0 0 1 2.028-1.944c1.049-.217 2.092.157 2.714.978l.149.198h1.76v-7.224h4.104v-1h-5.103v7.224h-.275c-.866-.992-2.205-1.43-3.55-1.155a3.647 3.647 0 0 0-2.797 2.68 3.715 3.715 0 0 0 3.591 4.649 3.636 3.636 0 0 0 2.756-1.237h.275v7.233h13.832v-1H44.227v-7.233z" class="color63809e svgShape"></path><path fill="#ffffff" d="M40.252 33.504c-.997.7-1.882.55-2.334-.087a1.4 1.4 0 0 1-.238-1.049c.066-.35.266-.688.942-1.163l1.63 2.3z" class="colorffffff svgShape"></path><path fill="#c6aaa1" d="M44.086 11.43h-3.844c-.89 0-1.614-.724-1.614-1.614 0-.551.29-1.063.742-1.353.036-.936.967-1.642 1.874-1.453a1.953 1.953 0 0 1 3.531 1.148v.008a1.698 1.698 0 0 1 1.018 1.557c0 .942-.765 1.708-1.707 1.708zm-3.168-3.455a.55.55 0 0 0-.536.667.5.5 0 0 1-.21.518 1.4 1.4 0 0 1-.161.093.606.606 0 0 0-.383.563c0 .34.275.615.614.615h3.844c.39 0 .707-.318.707-.707a.698.698 0 0 0-.622-.696.502.502 0 0 1-.424-.641.952.952 0 0 0-1.808-.576.502.502 0 0 1-.728.246.565.565 0 0 0-.293-.082zM11.225 8.816h1v1.097h-1zM11.225 11.707h1v1.097h-1zM12.621 10.309h1.097v1h-1.097zM9.731 10.309h1.097v1H9.731zM61.704 23.132h1v1.097h-1zM61.704 26.022h1v1.097h-1zM63.101 24.626h1.097v1h-1.097zM60.21 24.626h1.098v1H60.21zM11.477 40.56a1.846 1.846 0 0 1 0-3.691c1.017 0 1.845.828 1.845 1.846s-.828 1.844-1.845 1.844zm0-2.691a.846.846 0 1 0 .002 1.692.846.846 0 0 0-.002-1.692zM19.574 22.887h1v3.587h-1z" class="colora1b0c6 svgShape"></path><path fill="#c6aaa1" d="M18.28 24.181h3.588v1H18.28zM54.477 40.56a1.846 1.846 0 0 1 0-3.691v1a.846.846 0 1 0 .845.846h1a1.847 1.847 0 0 1-1.845 1.844z" class="colora1b0c6 svgShape"></path></svg>