<svg xmlns="http://www.w3.org/2000/svg" viewBox="0 0 512 512" id="goalsetting"><path d="M481.723,62.423c8.399,0,16.558-3.279,22.798-9.519l1.12-1.12c11.919-11.839,6.079-31.676-9.519-35.916   c-4.16-15.518-23.997-21.438-35.916-9.519l-1.12,1.12c-17.038,17.038-5.84,37.596-5.68,39.755l-28.077,28.157l-15.278-15.358   c-2.96-2.88-7.599-3.12-10.799-0.48c-0.8,0.32-24.637,24.877-59.913,8.959c-4.319-2-8.799-3.84-13.358-5.599   c-36.156-13.358-35.596-47.754-35.836-48.555c-0.4-4.08-3.84-7.279-7.999-7.279h-59.274c-4.08,0-7.519,3.04-7.919,7.119   c-0.4,1.04-0.32,35.436-35.996,48.795c-4.56,1.68-8.959,3.52-13.358,5.519c-35.196,15.918-58.953-8.559-59.993-9.039   c-3.2-2.56-7.839-2.32-10.719,0.56l-41.915,41.915c-2.96,2.96-3.12,7.679-0.4,10.879c0.4,0.8,25.037,24.318,8.879,59.833   c-2,4.4-3.839,8.879-5.519,13.359c-13.599,36.236-47.754,35.516-48.555,35.836c-4.159,0.4-7.359,3.839-7.359,7.999v59.274   c0,4.079,3.12,7.519,7.119,7.919c0.96,0.4,35.196-0.16,48.794,35.836c1.68,4.56,3.52,9.119,5.519,13.599   c16.078,35.196-8.559,59.033-8.959,59.833c-2.64,3.2-2.4,7.839,0.48,10.799l41.915,41.915c2.96,2.88,7.599,3.119,10.799,0.48   c0.88-0.4,24.237-25.197,59.913-8.959c4.399,2,8.799,3.839,13.438,5.599c36.076,13.439,35.596,47.835,35.916,48.715   c0.4,4,3.839,7.119,7.919,7.119h59.274c4.159,0,7.599-3.2,7.999-7.36c0.32-0.8-0.32-35.036,35.916-48.554   c4.479-1.68,8.959-3.52,13.278-5.519c35.676-16.238,59.033,8.479,59.834,8.879c3.199,2.719,7.919,2.56,10.879-0.4l41.915-41.915   c2.88-2.88,3.12-7.519,0.56-10.719c-0.4-0.88-24.957-24.717-9.039-59.993c2-4.319,3.839-8.799,5.599-13.358   c13.358-36.076,47.835-35.676,48.714-35.996c4.08-0.4,7.119-3.84,7.119-7.919v-59.274c0-4.16-3.2-7.599-7.279-7.999   c-0.8-0.24-35.116,0.4-48.635-35.916c-1.68-4.479-3.52-8.959-5.519-13.279c-15.918-35.276,8.639-59.113,8.959-59.913   c2.64-3.199,2.4-7.839-0.48-10.799L436.608,86.66l28.157-28.076C469.804,60.023,474.204,62.423,481.723,62.423z M492.042,31.306   c3.359,0.96,5.599,5.84,2.24,9.199l-1.12,1.12c-4.16,4.159-10.079,5.759-15.759,4.239L492.042,31.306z M470.364,18.828l1.12-1.12   c3.359-3.359,8.239-1.12,9.199,2.24l-14.558,14.639C464.605,28.907,466.205,22.987,470.364,18.828z M488.922,237.044v44.955   c-24.877,3.6-45.675,20.717-54.794,45.355c-1.68,4.16-3.36,8.319-5.2,12.479c-10.879,24.077-8.319,50.954,6.639,70.952   l-31.757,31.757c-20.078-14.958-47.035-17.518-71.032-6.559c-4.159,1.84-8.319,3.52-12.399,5.12   c-24.637,9.199-41.755,29.997-45.435,54.874h-44.955c-3.52-24.798-20.638-45.675-45.275-54.794   c-4.24-1.68-8.479-3.359-12.559-5.199c-23.997-10.959-50.954-8.399-71.032,6.639l-31.757-31.756   c15.038-20.078,17.598-47.035,6.639-71.032c-1.84-4.08-3.52-8.239-5.039-12.479c-9.359-24.717-30.236-41.835-54.954-45.355   v-44.955c24.797-3.52,45.675-20.718,54.954-45.435c1.52-4.16,3.2-8.319,5.039-12.319c10.959-24.077,8.399-50.954-6.559-71.112   l31.757-31.756c20.077,14.958,46.875,17.518,70.952,6.639c4.08-1.84,8.319-3.52,12.479-5.12   c24.717-9.199,41.835-30.077,45.355-54.874h44.955c3.68,24.877,20.797,45.675,45.355,54.794c4.16,1.68,8.319,3.359,12.479,5.2   c24.077,10.879,50.954,8.319,71.032-6.639l10.239,10.239l-47.595,47.595c-30.157-27.517-70.072-44.395-113.987-44.395   c-93.59,0-169.661,76.072-169.661,169.661s76.072,169.661,169.661,169.661S422.13,353.111,422.13,259.521   c0-43.915-16.878-83.831-44.395-113.987l47.595-47.595l10.239,10.239c-14.958,20.078-17.518,46.955-6.639,71.032   c1.84,4.16,3.52,8.319,5.12,12.399C443.247,216.326,464.045,233.444,488.922,237.044z M246.789,265.2   c3.2,3.12,8.239,3.12,11.359,0l16.718-16.718c1.6,3.359,2.64,7.039,2.64,11.039c0,13.838-11.199,25.037-25.037,25.037   c-13.838,0-25.037-11.199-25.037-25.037c0-13.839,11.199-25.037,25.037-25.037c4,0,7.679,1.04,11.039,2.64l-16.718,16.718   C243.67,256.961,243.67,262.001,246.789,265.2z M252.469,175.53c-46.315,0-83.991,37.675-83.991,83.991   c0,46.315,37.676,83.991,83.991,83.991s83.991-37.676,83.991-83.991c0-20.318-7.199-38.956-19.198-53.434l19.038-19.118   c16.879,19.518,27.197,44.795,27.197,72.552c0,61.193-49.834,111.028-111.028,111.028s-111.028-49.835-111.028-111.028   c0-61.193,49.834-111.028,111.028-111.028c27.757,0,53.034,10.319,72.552,27.197l-19.118,19.038   C291.424,182.729,272.786,175.53,252.469,175.53z" fill="#ee5c30" class="color000000 svgShape"></path></svg>