<svg xmlns="http://www.w3.org/2000/svg" viewBox="0 0 128 128" id="Initialpublicoffering"><path fill="#fd9c7f" d="M123.5 64c0 32.9-26.6 59.5-59.5 59.5S4.5 96.9 4.5 64 31.1 4.5 64 4.5s59.5 26.6 59.5 59.5z" class="colorfdda7f svgShape"></path><path fill="#3b2a25" d="M13.7 107.1c-1.1 0-1.9-.9-1.9-1.9V45.4c0-2.3 1.9-4.2 4.2-4.2h96.2c2.3 0 4.2 1.9 4.2 4.2v59.8c0 1.1-.9 1.9-1.9 1.9H13.7z" class="color25313b svgShape"></path><path fill="#584a46" d="M112.2 41.6H16c-2.1 0-3.8 1.7-3.8 3.8v59.8c0 .8.7 1.5 1.5 1.5h100.8c.8 0 1.5-.7 1.5-1.5V45.4c0-2.1-1.7-3.8-3.8-3.8z" class="color464e58 svgShape"></path><path fill="#ffffff" d="M16.3 46.7h95.5v55.8H16.3z" class="colorffffff svgShape"></path><path fill="#dad8d8" d="M120.6 110.6H7.4c-1.3 0-2.5-.2-3.7-.7l-1.8-.7c-1.1-.4-1.9-1.5-1.9-2.7h128c0 1.2-.7 2.3-1.9 2.7l-1.8.7c-1.2.5-2.4.7-3.7.7z" class="colordad9d8 svgShape"></path><path fill="#f2f2f2" d="M53.4 106.6c0 1 .8 1.8 1.7 1.8h17c1 0 1.7-.8 1.7-1.7v-.1H53.4z" class="colorf2f2f2 svgShape"></path><path fill="#f37d5a" d="M19.7 63.7h6.9v38.8h-6.9z" class="colorf37c5a svgShape"></path><path fill="#ee5c30" d="M26.6 70.2h6.9v32.3h-6.9z" class="colorda664b svgShape"></path><path fill="#f37d5a" d="M33.5 62h6.9v40.5h-6.9z" class="colorf37c5a svgShape"></path><path fill="#ee5c30" d="M40.5 54.8h6.9v47.7h-6.9z" class="colorda664b svgShape"></path><path fill="#f37d5a" d="M47.4 80.1h6.9v22.4h-6.9z" class="colorf37c5a svgShape"></path><path fill="#ee5c30" d="M54.3 71.3h6.9v31.2h-6.9z" class="colorda664b svgShape"></path><path fill="#f37d5a" d="M61.2 78.9h6.9v23.6h-6.9z" class="colorf37c5a svgShape"></path><path fill="#ee5c30" d="M68.1 67.5H75v35h-6.9z" class="colorda664b svgShape"></path><path fill="#f37d5a" d="M75.1 59.8H82v42.7h-6.9z" class="colorf37c5a svgShape"></path><path fill="#ee5c30" d="M82 86.7h6.9v15.7H82z" class="colorda664b svgShape"></path><path fill="#3b2a25" d="M39.6 48.8h8.7v2.9h-8.7z" class="color25313b svgShape"></path><path fill="#584a46" d="M37.9 51.7H50v3.1H37.9z" class="color464e58 svgShape"></path><path fill="#3b2a25" d="M41.8 6.6h4.3v.9h-4.3z" class="color25313b svgShape"></path><path fill="#3b2a25" d="M22.8 26.4H65v2.5H22.8z" transform="rotate(-90 43.922 27.668)" class="color25313b svgShape"></path><path fill="#cc6d50" d="M90.4 32.1H63V13.3h27.4l-8.3 9.4z" class="color50c6cc svgShape"></path><path fill="#dc927c" d="M45.2 8.6h28.6v18.8H45.2z" class="color7ccedc svgShape"></path><path fill="#ffffff" d="M47.7 13.2h1.6v9.7h-1.6v-9.7zM59.7 16.7c0 2.6-1.6 3.4-4.2 3.4h-1.7V23h-1.6v-9.7h3.3c2.5-.1 4.2.8 4.2 3.4zm-1.7-.2c0-1.5-1-1.8-2.6-1.8h-1.7v3.9h1.9c1.5 0 2.4-.5 2.4-2.1zM66.1 23c-2.9 0-5.1-2.1-5.1-5s2.2-5 5.1-5c2.9 0 5.1 2.1 5.1 5s-2.2 5-5.1 5zm0-8.5c-1.9 0-3.4 1.6-3.4 3.5 0 2 1.5 3.5 3.4 3.5s3.4-1.6 3.4-3.5c0-2-1.5-3.5-3.4-3.5z" class="colorffffff svgShape"></path><path fill="#bf6e55" d="M63 27.4v4.7l10.8-4.7z" class="color55bfbf svgShape"></path><circle cx="94.6" cy="57.2" r="7" fill="#f77852" class="colorf7bb52 svgShape"></circle><circle cx="94.6" cy="57.2" r="5.4" fill="#fd9c7f" class="colorfdda7f svgShape"></circle><path fill="#f77852" d="M94.3 61.2v-.7c-.9-.1-1.7-.4-2.4-1.1l.7-.8c.5.5 1.1.8 1.7.8v-1.9c-1.8-.4-2.1-1.1-2.1-2 0-1.2.9-1.9 2.1-2V53h.7v.5c.7.1 1.4.3 2 .7l-.6.9c-.4-.3-.9-.5-1.4-.6v1.8c1.8.4 2.2 1.1 2.2 2 0 1.2-1 1.9-2.2 2v.7h-.7zm-.9-5.7c0 .5.4.7.9.9v-1.7c-.5 0-.9.3-.9.8zm2.6 3.1c0-.6-.5-.7-1-.9v1.8c.5-.1 1-.3 1-.9z" class="colorf7bb52 svgShape"></path><circle cx="104.5" cy="70.7" r="4.3" fill="#f77852" class="colorf7bb52 svgShape"></circle><circle cx="104.5" cy="70.7" r="3.3" fill="#fd9c7f" class="colorfdda7f svgShape"></circle><path fill="#f77852" d="M104.4 73.2v-.4c-.5-.1-1-.3-1.5-.6l.4-.5c.3.3.7.5 1 .5V71c-1.1-.3-1.3-.7-1.3-1.2 0-.7.6-1.2 1.3-1.2v-.3h.4v.3c.4 0 .8.2 1.2.4l-.4.5c-.3-.2-.5-.3-.9-.3v1.1c1.1.3 1.3.7 1.3 1.2 0 .7-.6 1.2-1.3 1.2v.4h-.2zm-.6-3.5c0 .3.2.4.6.5v-1c-.3 0-.6.2-.6.5zm1 1.4v1.1c.7-.1.9-.8 0-1.1z" class="colorf7bb52 svgShape"></path></svg>