<svg xmlns="http://www.w3.org/2000/svg" data-name="Layer 39" viewBox="0 0 100 100" id="interview"><path d="M25.34,18.42A13.13,13.13,0,0,0,51.1,19.79l0-.06v-.06a13.15,13.15,0,1,0-25.8-1.35s0,0,0,.05A.43.43,0,0,0,25.34,18.42Zm13,9.37a11.16,11.16,0,0,1-10.87-8.73C30.09,18.58,37,17,41.57,12.7c1,2.11,3.24,5.87,7.36,7.42A11.15,11.15,0,0,1,38.35,27.79Zm0-22.28A11.15,11.15,0,0,1,49.49,16.65a10.59,10.59,0,0,1-.11,1.5c-4.65-1.94-6.49-7.5-6.5-7.56a1,1,0,0,0-.76-.67,1,1,0,0,0-.95.32c-3.92,4.53-11.23,6.31-13.94,6.83,0-.14,0-.28,0-.42A11.16,11.16,0,0,1,38.35,5.51Z" fill="#ee5c30" class="color000000 svgShape"></path><path d="M74.7,56.5A15.45,15.45,0,1,0,53.88,37.15a19.45,19.45,0,0,0-10.47-5.87L43,31.2A25.92,25.92,0,0,0,36,30.88c-.78.07-1.55.18-2.28.32h0l-.33.07c-14,2.91-17.48,17.87-18.35,25-6.92,2.43-11.15,5.8-11.15,9.58V76.15a1,1,0,0,0,.22.62c.87,7,16.49,12.53,36.58,12.85,0,.41,0,.65,0,.68a1,1,0,0,0,.64.93,74.75,74.75,0,0,0,27.15,5.24,74.75,74.75,0,0,0,27.15-5.24,1,1,0,0,0,.64-.93C96.18,90,95.92,61.25,74.7,56.5ZM68.39,29A13.45,13.45,0,0,1,69,55.83H67.8A13.45,13.45,0,0,1,68.39,29ZM44.63,35.61a1,1,0,0,0,.14-.93l-.38-1.1a17.79,17.79,0,0,1,8.84,5.87,15.38,15.38,0,0,0,4.36,14,101.81,101.81,0,0,0-11.29-1L42.77,38.09Zm-.4,16.79-1.88,0c-3.47,0-6.81.15-10,.44l3.43-14h5.1ZM34.62,33.06a24.62,24.62,0,0,1,7.47,0l.62,1.77-1.52,2H35.52l-1.52-2Zm-2.3.52-.39,1.1a1,1,0,0,0,.15.93l1.85,2.48L30.26,53a74.65,74.65,0,0,0-13.19,2.58C18,48.93,21.23,36.8,32.32,33.58Zm8.44,54C19.89,87.31,6,81.55,6,76.15a1,1,0,0,0-.18-.57V70.31a13.16,13.16,0,0,0,1.82,1.58c2.94,2.12,7.5,3.93,13.21,5.24a98,98,0,0,0,21.27,2.22A55.3,55.3,0,0,0,40.76,87.62ZM21.29,75.18c-5.44-1.25-9.76-3-12.47-4.91-2-1.44-3-2.92-3-4.4,0-5.55,14.68-11.49,36.53-11.49a98.54,98.54,0,0,1,18.82,1.68c.3.16.61.3.92.44C50.43,59.12,45.1,69,42.66,77.35h-.31A96.13,96.13,0,0,1,21.29,75.18ZM42.62,89.62c.18-4.29,2-27.47,20.29-31.26l.37-.08a28.6,28.6,0,0,1,10.19,0l.43.09c18.25,3.79,20.08,27,20.26,31.26A71,71,0,0,1,42.62,89.62Z" fill="#ee5c30" class="color000000 svgShape"></path></svg>