<svg xmlns="http://www.w3.org/2000/svg" xmlns:xlink="http://www.w3.org/1999/xlink" viewBox="0 0 136 136" id="Marketing"><pattern id="a" width="21.5" height="21.5" x="-584" y="-1752" patternUnits="userSpaceOnUse" viewBox="0 -21.5 21.5 21.5"><path fill="none" d="M0-21.5h21.5V0H0z"></path><path fill="#ffffff" d="M0-21.5h21.5V0H0z" class="colorffffff svgShape"></path></pattern><path fill="#f37d5a" d="M132 68.8c0 33.3-27 60.4-60.4 60.4-26.3 0-49-17-57.2-41-2.4-7.4-3.4-15.2-3-22.1C12.7 34.4 38.7 8.4 71.6 8.4c33.8 0 60.4 27.4 60.4 60.4z" class="colorf37c5a svgShape"></path><path fill="#594b47" d="M122.9 26.6c0-2.2-1.8-3.9-3.9-3.9H24.4c-2.2 0-3.9 1.8-3.9 3.9v61.9H123V26.6z" class="color474f59 svgShape"></path><path fill="#ffffff" d="M24.9 27.1h93.5V84H24.9z" class="colorffffff svgShape"></path><path fill="#f3f3f3" d="M20.4 88.5v7.6c0 2.2 1.8 3.9 3.9 3.9h94.6c2.2 0 3.9-1.8 3.9-3.9v-7.6H20.4z" class="colorf3f3f3 svgShape"></path><path fill="#dad8d8" d="M87.1 113.3H56.2l3-13.2h24.9z" class="colordad9d8 svgShape"></path><path fill="#f3f3f3" d="M51.3 111.9h40.6v3H51.3z" class="colorf3f3f3 svgShape"></path><path fill="#dad8d8" d="M109.7 27.1H33.6L40.1 84h63.1z" class="colordad9d8 svgShape"></path><path fill="#f3f3f3" d="M40.1 6.9h63V84h-63z" class="colorf3f3f3 svgShape"></path><path fill="#594b47" d="M40.1 6.9h63v5.2h-63z" class="color474f59 svgShape"></path><pattern id="b" patternTransform="translate(10.935 3.909)" xlink:href="#a"></pattern><circle cx="43.9" cy="9.5" r="1.5" fill="url(#b)"></circle><pattern id="c" patternTransform="translate(10.935 3.909)" xlink:href="#a"></pattern><circle cx="48.3" cy="9.5" r="1.5" fill="url(#c)"></circle><pattern id="d" patternTransform="translate(10.935 3.909)" xlink:href="#a"></pattern><circle cx="52.7" cy="9.5" r="1.5" fill="url(#d)"></circle><path fill="#dc937d" d="M47.6 45.2h48.2v1.3H47.6z" class="color7dcedc svgShape"></path><path fill="#fd9c7f" d="M47.6 22.6h3.1v20.3h-3.1z" class="colorfdda7f svgShape"></path><path fill="#f67953" d="M47.6 22.6h3.1v4h-3.1z" class="colorf6bb53 svgShape"></path><path fill="#fd9c7f" d="M53.2 31.7h3.1v11.2h-3.1z" class="colorfdda7f svgShape"></path><path fill="#f67953" d="M53.2 31.7h3.1v2.2h-3.1z" class="colorf6bb53 svgShape"></path><path fill="#fd9c7f" d="M58.8 26.1h3.1v16.8h-3.1z" class="colorfdda7f svgShape"></path><path fill="#f67953" d="M58.8 26.1h3.1v3.3h-3.1z" class="colorf6bb53 svgShape"></path><path fill="#fd9c7f" d="M64.4 40.3h3.1v2.6h-3.1z" class="colorfdda7f svgShape"></path><path fill="#f67953" d="M64.4 40.3h3.1v.5h-3.1z" class="colorf6bb53 svgShape"></path><path fill="#fd9c7f" d="M70.1 28.6h3.1v14.3h-3.1z" class="colorfdda7f svgShape"></path><path fill="#f67953" d="M70.1 28.6h3.1v2.8h-3.1z" class="colorf6bb53 svgShape"></path><path fill="#fd9c7f" d="M75.7 31.8h3.1V43h-3.1z" class="colorfdda7f svgShape"></path><path fill="#f67953" d="M75.7 31.8h3.1V34h-3.1z" class="colorf6bb53 svgShape"></path><path fill="#fd9c7f" d="M81.3 23.6h3.1v19.3h-3.1z" class="colorfdda7f svgShape"></path><path fill="#f67953" d="M81.3 23.6h3.1v3.8h-3.1z" class="colorf6bb53 svgShape"></path><path fill="#fd9c7f" d="M87 32.8h3.1v10.1H87z" class="colorfdda7f svgShape"></path><path fill="#f67953" d="M87 32.8h3.1v2H87z" class="colorf6bb53 svgShape"></path><path fill="#fd9c7f" d="M92.6 26.1h3.1v16.8h-3.1z" class="colorfdda7f svgShape"></path><path fill="#f67953" d="M92.6 26.1h3.1v3.3h-3.1z" class="colorf6bb53 svgShape"></path><path fill="#3b2a25" d="M102.5 81h5.1v5.1h-5.1z" class="color25313b svgShape"></path><path fill="#fd9c7f" d="m110.5 105.2-1.9-18.6h-7.1l-1.9 18.6c-.3 3.2 2.2 6 5.4 6 3.3.1 5.8-2.7 5.5-6z" class="colorfdda7f svgShape"></path><path fill="#3b2a25" d="M100.7 85.4h8.6v1.3h-8.6z" class="color25313b svgShape"></path><circle cx="105" cy="66.9" r="15.8" fill="#3b2a25" class="color25313b svgShape"></circle><path fill="#dc937d" d="M113.7 58.3c-2.2-2.2-5.3-3.6-8.7-3.6V67l8.7-8.7z" class="color7dcedc svgShape"></path><path fill="#ca7055" d="M105 54.7c-6.8 0-12.3 5.5-12.3 12.3H105V54.7z" class="color55c5ca svgShape"></path><pattern id="e" patternTransform="translate(10.935 3.909)" xlink:href="#a"></pattern><path fill="url(#e)" d="M113.7 58.3 105 67l8.7 8.7c2.2-2.2 3.6-5.3 3.6-8.7 0-3.5-1.4-6.5-3.6-8.7z"></path><path fill="#ee5c30" d="M92.8 66.9c0 6.8 5.5 12.3 12.3 12.3 3.4 0 6.5-1.4 8.7-3.6l-8.7-8.7H92.8z" class="colordb674c svgShape"></path><circle cx="8.4" cy="77.9" r="4.4" fill="#3b2a25" class="color25313b svgShape"></circle><path fill="#dc937d" d="M46.5 109.1h5.9L55.8 88h-9.3z" class="color7dcedc svgShape"></path><path fill="#fd9c7f" d="M58.5 69c1 0 1.7.8 1.7 1.7V85c0 1-.8 1.7-1.7 1.7H42.1V69h16.4z" class="colorfdda7f svgShape"></path><path fill="#dc937d" d="m9.7 97.8 32.4-11V69L9.7 58.1z" class="color7dcedc svgShape"></path><path fill="#3b2a25" d="M9.7 56.4c.7 0 1.2.6 1.2 1.2v40.6c0 .7-.6 1.2-1.2 1.2-.7 0-1.2-.6-1.2-1.2V57.6c-.1-.7.5-1.2 1.2-1.2zM60.9 72.7c1.2 0 2.3 1 2.3 2.3v5.9c0 1.2-1 2.3-2.3 2.3h-.7V72.7h.7zM57.9 86.8c0 1-.8 1.8-1.8 1.8h-9.9c-1 0-1.8-.8-1.8-1.8h13.5z" class="color25313b svgShape"></path><path fill="#ee5c30" d="M77.6 50.7h-20c-1.2 0-2.2 1-2.2 2.2v11.2c0 1.2 1 2.2 2.2 2.2h13.5l6.2 6.3v-6.3h.3c1.2 0 2.2-1 2.2-2.2V52.9c0-1.2-1-2.2-2.2-2.2z" class="colordb674c svgShape"></path><pattern id="f" patternTransform="translate(10.935 3.909)" xlink:href="#a"></pattern><path fill="url(#f)" d="M77.5 53.8H57.7c-.3 0-.6.3-.6.6s.3.6.6.6h19.7c.3 0 .6-.3.6-.6.1-.3-.2-.6-.5-.6z"></path><pattern id="g" patternTransform="translate(10.935 3.909)" xlink:href="#a"></pattern><path fill="url(#g)" d="M77.5 57.5H57.7c-.3 0-.6.3-.6.6s.3.6.6.6h19.7c.3 0 .6-.3.6-.6.1-.3-.2-.6-.5-.6z"></path><pattern id="h" patternTransform="translate(10.935 3.909)" xlink:href="#a"></pattern><path fill="url(#h)" d="M77.5 61.2H57.7c-.3 0-.6.3-.6.6s.3.6.6.6h19.7c.3 0 .6-.3.6-.6s-.2-.6-.5-.6z"></path></svg>