<svg xmlns="http://www.w3.org/2000/svg" viewBox="0 0 66 66" id="Monitoring"><path d="M40.4975,0.9906c-6.54,0-12.69,2.5399-17.31,7.1699c-4.63,4.63-7.18,10.78-7.18,17.3301c0,13.51,10.99,24.5,24.49,24.5  c13.52,0,24.51-11,24.51-24.5C65.0075,11.9806,54.0175,0.9906,40.4975,0.9906z M40.4975,42.3605  c-9.29,0-16.84-7.5699-16.84-16.8699c0-9.3101,7.55-16.8701,16.84-16.8701c9.31,0,16.88,7.5601,16.88,16.8701  C57.3775,34.7905,49.8075,42.3605,40.4975,42.3605z" fill="#ee5c30" class="color000000 svgShape"></path><path d="M23.0775 48.8605l2-1.8398c-2.42-1.7301-4.53-3.8601-6.23-6.29l-2.02 1.8699-1.56-1.5599c-.38-.37-1.04-.37-1.42 0l-10.56 10.5699c-3.0601 3.0601-3.0601 8.04 0 11.1001 3.0099 3.03 8 3.1 11.1 0l10.56-10.5601c.4-.3999.4-1.03 0-1.4199L23.0775 48.8605zM40.5187 29.4632c2.1929 0 3.9771-1.7842 3.9771-3.9766 0-.0938-.0034-.1875-.0103-.2813-.4321.3301-.9673.5166-1.5352.5166-1.3979 0-2.5352-1.1377-2.5352-2.5352 0-.6162.2236-1.1963.6094-1.6475-.1641-.0205-.333-.0303-.5059-.0303-2.1934 0-3.9775 1.7842-3.9775 3.9775C36.5412 27.6791 38.3254 29.4632 40.5187 29.4632z" fill="#ee5c30" class="color000000 svgShape"></path><path d="M54.4075,25.1805c-0.25-0.3301-6.28-8.05-13.89-8.05c-7.62,0-13.64,7.72-13.89,8.05c-0.14,0.1799-0.14,0.4299,0,0.61  c0.25,0.33,6.27,8.05,13.89,8.05c7.61,0,13.64-7.7201,13.89-8.05C54.5475,25.6105,54.5475,25.3605,54.4075,25.1805z   M40.5175,30.4606c-2.74,0-4.98-2.23-4.98-4.97c0-2.75,2.24-4.98,4.98-4.98c0.65,0,1.26,0.1099,1.82,0.3398  c0.18,0.0801,0.31,0.26,0.31,0.4601s-0.12,0.38-0.3,0.4601c-0.57,0.25-0.9301,0.7999-0.9301,1.4199c0,0.84,0.69,1.53,1.53,1.53  c0.59,0,1.11-0.3301,1.38-0.8501c0.09-0.1799,0.27-0.2899,0.48-0.2799c0.2,0.0199,0.38,0.15,0.44,0.35  c0.16,0.5,0.25,1.02,0.25,1.55C45.4975,28.2306,43.2675,30.4606,40.5175,30.4606z" fill="#ee5c30" class="color000000 svgShape"></path></svg>