<svg xmlns="http://www.w3.org/2000/svg" viewBox="0 0 512 512" id="Objective"><path fill="#dbd6d5" d="M438.511 93.922a29.845 29.845 0 0 0-11.368-7.146l-11.977-66.344-49.215 49.214c-33.92-18.09-71.81-27.582-110.555-27.582-129.56 0-234.968 105.407-234.968 234.968C20.428 406.592 125.836 512 255.396 512s234.968-105.407 234.968-234.968c0-38.747-9.493-76.643-27.585-110.553l49.225-49.225-66.36-11.964c-1.461-4.148-3.86-8.008-7.133-11.368z" class="colord5d6db svgShape"></path><path fill="#ffffff" d="M418.079 73.49a29.845 29.845 0 0 0-11.368-7.146L394.734 0l-49.215 49.214c-33.92-18.09-71.81-27.582-110.555-27.582C105.404 21.632-.004 127.039-.004 256.6c0 129.56 105.408 234.968 234.968 234.968S469.932 386.161 469.932 256.6c0-38.747-9.493-76.643-27.585-110.553l49.225-49.225-66.36-11.964c-1.461-4.148-3.86-8.008-7.133-11.368z" class="colorffffff svgShape"></path><circle cx="234.964" cy="256.59" r="214.536" fill="#ee5c30" class="colore56353 svgShape"></circle><path fill="#ffffff" d="M234.963 420.845c-90.572 0-164.252-73.683-164.252-164.255 0-90.57 73.68-164.253 164.252-164.253 90.571 0 164.257 73.683 164.257 164.253 0 90.572-73.686 164.255-164.257 164.255z" class="colorffffff svgShape"></path><path fill="#ee5c30" d="M234.963 370.563c-62.84 0-113.969-51.129-113.969-113.973 0-62.842 51.128-113.971 113.969-113.971 62.846 0 113.975 51.129 113.975 113.971 0 62.844-51.129 113.973-113.975 113.973z" class="colore56353 svgShape"></path><path fill="#ffffff" d="M234.963 320.281c-35.116 0-63.687-28.572-63.687-63.69 0-35.118 28.571-63.69 63.687-63.69 35.121 0 63.692 28.572 63.692 63.69 0 35.118-28.57 63.69-63.692 63.69z" class="colorffffff svgShape"></path><path fill="#6a453a" d="M311.407 166.7l-8.357-46.152 78.494-78.494 8.358 46.151zM324.853 180.146l46.153 8.359 78.494-78.496-46.152-8.357z" class="color3a556a svgShape"></path><path fill="#8a6d64" d="M239.19 265.81l-13.445-13.446 164.439-164.44c3.713-3.713 9.733-3.713 13.445 0a9.507 9.507 0 0 1 0 13.446L239.19 265.81z" class="color64798a svgShape"></path></svg>