<svg xmlns="http://www.w3.org/2000/svg" viewBox="0 0 512 512" id="personalized"><defs><linearGradient id="a" x1="21.171" x2="490.829" y1="23.515" y2="493.172" gradientUnits="userSpaceOnUse"><stop offset="0" stop-color="#ee5c30" class="stopColora01fff svgShape"></stop><stop offset=".214" stop-color="#ff6233" class="stopColor8733ff svgShape"></stop><stop offset=".665" stop-color="#ff7248" class="stopColor4865ff svgShape"></stop><stop offset="1" stop-color="#ff4b15" class="stopColor158dff svgShape"></stop></linearGradient></defs><path fill="url(#a)" d="M363.6 247.3H148.02a12.022 12.022 0 0 0-12 12v85.58a148.583 148.583 0 0 0 86.86 57.8h66.34a147.48 147.48 0 0 0 86.38-57.41V259.3a12.022 12.022 0 0 0-12-12Zm-107.79 97.48a19.79 19.79 0 1 1 19.79-19.79 19.809 19.809 0 0 1-19.79 19.79ZM363.6 247.3H148.02a12.022 12.022 0 0 0-12 12v85.58a148.583 148.583 0 0 0 86.86 57.8h66.34a147.48 147.48 0 0 0 86.38-57.41V259.3a12.022 12.022 0 0 0-12-12Zm-107.79 97.48a19.79 19.79 0 1 1 19.79-19.79 19.809 19.809 0 0 1-19.79 19.79ZM363.6 247.3H148.02a12.022 12.022 0 0 0-12 12v85.58a148.583 148.583 0 0 0 86.86 57.8h66.34a147.48 147.48 0 0 0 86.38-57.41V259.3a12.022 12.022 0 0 0-12-12Zm-107.79 97.48a19.79 19.79 0 1 1 19.79-19.79 19.809 19.809 0 0 1-19.79 19.79Zm232-90.32h-36.04c-2.11-104.9-87.05-189.85-191.96-191.95V26.46a4 4 0 1 0-8 0v36.05C146.9 64.61 61.96 149.56 59.85 254.46H23.81a4 4 0 0 0 0 8h36.04c2.11 104.92 87.05 189.85 191.96 191.97v36.03a4 4 0 0 0 8 0v-36.03c104.91-2.12 189.85-87.05 191.96-191.97h36.04a4 4 0 1 0 0-8Zm-236-183.94c1.33-.05 2.66-.06 4-.06s2.67.01 4 .06v11.94a4 4 0 0 1-8 0Zm-172 191.94H67.86c-.04-1.32-.05-2.66-.05-4s.01-2.67.05-4h11.95a4 4 0 1 1 0 8Zm180 183.96c-1.33.03-2.66.04-4 .04s-2.67-.01-4-.04v-11.96a4 4 0 0 1 8 0Zm126.37-102.39s-10.3 13.9-10.58 14.24a155.849 155.849 0 0 1-179.26 44.41c-28.09-11.61-54.54-32.57-70.32-57.74l-.81-1.26a154.687 154.687 0 0 1-11.66-21.22l14.03-70.16a48.774 48.774 0 0 1 47.69-39.1h55.81a25.05 25.05 0 0 0 49.46 0h55.81a48.774 48.774 0 0 1 47.69 39.1l14.03 70.16a155.641 155.641 0 0 1-11.89 21.57ZM245.75 178.49a7.343 7.343 0 0 1-6.47-7.3v-.15a7.342 7.342 0 0 1 6.7-7.18c.05-.01.09-.01.14-.02a4.434 4.434 0 0 1 .52-.02 7.224 7.224 0 0 1 3.25.76 3.982 3.982 0 0 0 5.07-1.29 26.249 26.249 0 0 0 4.42-11.08l.12-.83a52.231 52.231 0 0 0 12.76 5.51v26.06a11.319 11.319 0 0 1-11.31 11.32 4 4 0 0 0 0 8c.47 0 .93-.04 1.39-.07v7a3.993 3.993 0 0 0 4 4h6.05a17.054 17.054 0 0 1-33.16 0h6.05a3.993 3.993 0 0 0 4-4v-26.74a4.015 4.015 0 0 0-3.53-3.97Zm157.74 130.28-11.61-58.04a56.782 56.782 0 0 0-55.53-45.53h-66.01v-5.38a19.411 19.411 0 0 0 9.92-16.87v-24.49a51.754 51.754 0 0 0 6.21.38h9.96a4 4 0 0 0 4-4v-14.62a24 24 0 0 0-3.91-13.1 25.34 25.34 0 0 0-10.44-9.08 27 27 0 0 0-22.89-.01l-10.59 5.01a21.8 21.8 0 0 0-21.19 4.11 19.736 19.736 0 0 0-6.55 20.18s5.16 20.6 6.85 27.46a15.383 15.383 0 0 0 9.57 10.79v19.62h-66.01a56.782 56.782 0 0 0-55.53 45.53l-11.61 58.04a155.536 155.536 0 0 1-8.32-50.31c0-86.01 69.98-156 156-156s156 69.99 156 156a155.536 155.536 0 0 1-8.32 50.31Zm40.27-46.31h-11.95a4 4 0 0 1 0-8h11.95c.04 1.33.05 2.66.05 4s-.01 2.68-.05 4ZM363.6 247.3H148.02a12.022 12.022 0 0 0-12 12v85.58a148.583 148.583 0 0 0 86.86 57.8h66.34a147.48 147.48 0 0 0 86.38-57.41V259.3a12.022 12.022 0 0 0-12-12Zm-107.79 97.48a19.79 19.79 0 1 1 19.79-19.79 19.809 19.809 0 0 1-19.79 19.79ZM363.6 247.3H148.02a12.022 12.022 0 0 0-12 12v85.58a148.583 148.583 0 0 0 86.86 57.8h66.34a147.48 147.48 0 0 0 86.38-57.41V259.3a12.022 12.022 0 0 0-12-12Zm-107.79 97.48a19.79 19.79 0 1 1 19.79-19.79 19.809 19.809 0 0 1-19.79 19.79ZM363.6 247.3H148.02a12.022 12.022 0 0 0-12 12v85.58a148.583 148.583 0 0 0 86.86 57.8h66.34a147.48 147.48 0 0 0 86.38-57.41V259.3a12.022 12.022 0 0 0-12-12Zm-107.79 97.48a19.79 19.79 0 1 1 19.79-19.79 19.809 19.809 0 0 1-19.79 19.79Zm240.675 137.078a4 4 0 0 1 0 5.657l-11.314 11.314a4 4 0 0 1-5.656 0l-54.142-54.142-8.486 8.485a4 4 0 0 1-6.709-1.859l-11.314-45.254a4 4 0 0 1 4.851-4.851l45.255 11.314a4 4 0 0 1 1.858 6.709l-8.484 8.485ZM15.515 34.829a4 4 0 0 1 0-5.658l11.314-11.313a4 4 0 0 1 5.656 0L86.627 72l8.486-8.485a4 4 0 0 1 6.709 1.858l11.314 45.255a4 4 0 0 1-4.851 4.851L63.03 104.165a4 4 0 0 1-1.858-6.708l8.484-8.486Zm96.568 367.431a4 4 0 0 1 1.053 3.8l-11.314 45.254a4 4 0 0 1-6.709 1.859l-8.486-8.485-54.142 54.141a4 4 0 0 1-5.656 0l-11.314-11.314a4 4 0 0 1 0-5.657l54.141-54.142-8.484-8.485a4 4 0 0 1 1.858-6.709l45.255-11.314a4 4 0 0 1 3.798 1.052Zm287.834-287.833a4 4 0 0 1-1.053-3.8l11.314-45.255a4 4 0 0 1 6.709-1.858L425.373 72l54.142-54.142a4 4 0 0 1 5.656 0l11.314 11.313a4 4 0 0 1 0 5.658l-54.141 54.142 8.484 8.486a4 4 0 0 1-1.858 6.708l-45.255 11.314a4 4 0 0 1-3.8-1.052Z" data-name="solid gradient"></path></svg>