<svg xmlns="http://www.w3.org/2000/svg" viewBox="0 0 50 50" id="Recommendations"><path d="M30.8,28.8H22l0.6-1c0.6-0.9,0.9-2,0.9-3.1c0-2.4-2-4.4-4.4-4.4c-0.9,0-1.7,0.8-1.7,1.7v1.1c0,1.2-0.3,2.3-1,3.3l-0.8,1.3  c-0.4,0.7-1.1,1-1.9,1h-1.3c-0.9,0-1.8,0.5-2.3,1.3c-0.5-0.8-1.4-1.3-2.5-1.3H5.6c-1.7,0-3.1,1.4-3.1,3.1v11.7  c0,1.7,1.4,3.1,3.1,3.1h2.1c1,0,1.9-0.5,2.5-1.3c0.5,0.8,1.3,1.3,2.3,1.3h16.1c0.7,0,1.3-0.3,1.6-0.8c0.3-0.4,0.4-1,0.4-1.8  c0-0.7-0.2-1.3-0.4-1.8c0.3-0.1,0.6-0.4,0.8-0.7c0.3-0.4,0.4-1,0.4-1.8c0-0.8-0.2-1.3-0.4-1.8c0.3-0.1,0.6-0.4,0.8-0.7  c0.3-0.4,0.4-1,0.4-1.8c0-0.7-0.2-1.3-0.4-1.8c0.3-0.1,0.6-0.4,0.8-0.7c0.3-0.4,0.4-1,0.4-1.8C32.8,29,31.4,28.8,30.8,28.8   M6.6,34.6c-1,0-1.7-0.8-1.7-1.7s0.8-1.7,1.7-1.7c1,0,1.7,0.8,1.7,1.7S7.6,34.6,6.6,34.6 M31.6,32.6c-0.2,0.3-0.4,0.4-0.8,0.4h-3.9  c-0.3,0-0.5,0.2-0.5,0.5c0,0.3,0.2,0.5,0.5,0.5H30c0.3,0,1.1,0,1.1,1.6c0,0.5-0.1,0.9-0.3,1.2c-0.2,0.3-0.4,0.4-0.8,0.4h-3.9  c-0.3,0-0.5,0.2-0.5,0.5s0.2,0.5,0.5,0.5h3.2c0.3,0,1.1,0,1.1,1.6c0,0.5-0.1,1-0.3,1.2c-0.2,0.3-0.4,0.4-0.8,0.4h-0.8  c0,0-0.1,0-0.1,0h-2.9c-0.3,0-0.5,0.2-0.5,0.5c0,0.3,0.2,0.5,0.5,0.5h3c0,0,0,0,0.1,0c0.3,0,1,0.1,1,1.6c0,0.5-0.1,0.9-0.3,1.2  c-0.2,0.3-0.4,0.4-0.8,0.4H12.4c-0.9,0-1.7-0.8-1.7-1.7V31.4c0-0.9,0.7-1.7,1.7-1.7h1.3c1.1,0,2.1-0.6,2.7-1.5l0.8-1.3  c0.7-1.1,1.1-2.5,1.1-3.8V22c0-0.4,0.3-0.7,0.7-0.7c1.9,0,3.4,1.5,3.4,3.4c0,0.9-0.3,1.8-0.7,2.6L20.6,29c-0.1,0.2-0.1,0.3,0,0.5  c0.1,0.2,0.3,0.3,0.4,0.3h9.7c0.3,0,1.1,0,1.1,1.6C31.8,31.9,31.7,32.3,31.6,32.6" fill="#ee5c30" class="color000000 svgShape"></path><path d="M21 25.2c.3 0 .5-.2.5-.5 0-.9-.6-1.8-1.4-2.2-.3-.1-.5 0-.7.2-.1.3 0 .5.2.7.5.2.8.7.8 1.3C20.5 25 20.7 25.2 21 25.2M47.5 9.3c0-.1 0-.3-.1-.3l-2.8-2.8c-.2-.2-.5-.2-.7 0l-1.7 1.7c-1.7-1.6-4-2.5-6.4-2.5-2.5 0-4.9 1-6.7 2.8-1.8 1.8-2.8 4.1-2.8 6.6 0 1.8.5 3.6 1.6 5.2l-1.5 3.5c-.1.2 0 .4.1.5.1.1.2.2.3.2.1 0 .1 0 .2 0l3.5-1.5c1.5 1 3.3 1.6 5.2 1.6 2.5 0 4.9-1 6.7-2.8 1.8-1.8 2.8-4.1 2.8-6.6 0-.9-.1-1.7-.4-2.5l2.5-2.5C47.5 9.6 47.5 9.4 47.5 9.3M43.9 11.6C43.9 11.6 43.9 11.6 43.9 11.6l-8 8-5.1-5 2.1-2.1 2.7 2.6c.2.2.5.2.7 0L42.5 9h0l1.7-1.7 2 2.1L43.9 11.6zM14.8 14.3l-2.2 2.1.5 3c0 .2 0 .4-.2.5-.1.1-.2.1-.3.1-.1 0-.2 0-.2-.1l-2.7-1.4L7 19.9c-.2.1-.4.1-.5 0-.2-.1-.2-.3-.2-.5l.5-3-2.2-2.1c-.1-.1-.2-.3-.1-.5.1-.2.2-.3.4-.3l3-.4 1.3-2.7c.2-.3.7-.3.9 0l1.4 2.7 3 .4c.2 0 .3.2.4.3C14.9 13.9 14.9 14.1 14.8 14.3M20.4 7.1l-1.8 1.8.4 2.5c0 .2 0 .4-.2.5-.2.1-.3.1-.5 0L16 10.8 13.7 12c-.1 0-.2.1-.2.1-.1 0-.2 0-.3-.1-.2-.1-.2-.3-.2-.5l.4-2.5-1.8-1.8c-.1-.1-.2-.3-.1-.5.1-.2.2-.3.4-.3l2.5-.4 1.1-2.3c.2-.3.7-.3.9 0l1.1 2.3 2.5.4c.2 0 .3.2.4.3C20.6 6.8 20.5 7 20.4 7.1M23.8 15.2l-1.4 1.3.3 1.9c0 .2 0 .4-.2.5-.2.1-.4.1-.5 0L20.4 18l-1.7.9c-.1 0-.2.1-.2.1-.1 0-.2 0-.3-.1-.2-.1-.2-.3-.2-.5l.3-1.9-1.4-1.3c-.1-.1-.2-.3-.1-.5.1-.2.2-.3.4-.3l1.9-.3.8-1.7c.1-.2.3-.3.4-.3.2 0 .4.1.5.3l.8 1.7 1.9.3c.2 0 .3.2.4.3C24 14.8 23.9 15 23.8 15.2" fill="#ee5c30" class="color000000 svgShape"></path></svg>