<svg xmlns="http://www.w3.org/2000/svg" viewBox="0 0 66 66" id="ResourceAllocation"><path d="M58 42.2 42.7 52c-.5.3-1 .5-1.6.5H30.9c-.2 0-.4-.2-.5-.4-.2-1.1.2-1.4 1-1.4H41c1.9 0 3.4-1.7 3.4-3.7s-1.5-3.7-3.4-3.7H30.9c-.2 0-.7 0-1-.4-1.6-2-4.2-3-7.6-3-1.3 0-2.5.1-3.4.3v19.6h.3c1.5-.1 3 .2 4.4.7l9.4 3.4c1.9.7 4 .5 5.7-.6l8.9-5.5 13.5-8.9c1.6-.9 2.3-3.1 1.5-4.9-.8-2-2.9-2.8-4.6-1.8zM16.7 37.8h-13c-.4 0-.7.3-.7.7v22.8c0 .4.4.7.8.7h13c.4 0 .7-.3.7-.7V38.5c0-.4-.4-.7-.8-.7zM21.6 21.5v-5.3c0-1.1-.6-2.2-1.5-2.8 0 0-.1-.1-.2-.1l-2.8-1c-1.3 2-3.2 3.5-5.5 3.5-2.2 0-4.2-1.5-5.5-3.4l-2.8 1c-.1 0-.1 0-.2.1-1 .6-1.5 1.7-1.5 2.9v5.3c0 .4.3.7.7.7h18.4c.6-.2.9-.5.9-.9zM23.8 22.2h18.4c.4 0 .7-.3.7-.7v-5.3c0-1.1-.6-2.2-1.5-2.8 0 0-.1-.1-.2-.1l-2.8-1c-1.3 2-3.2 3.5-5.5 3.5-2.2 0-4.2-1.5-5.5-3.4l-2.8 1c-.1 0-.1 0-.2.1-1 .6-1.5 1.7-1.5 2.9v5.3c.2.2.5.5.9.5z" fill="#ee5c30" class="color000000 svgShape"></path><path d="M33 14.2c3.1 0 5.5-3.8 5.5-6.9 0-3-2.5-5.5-5.5-5.5s-5.5 2.5-5.5 5.5c0 3.2 2.4 6.9 5.5 6.9zM11.7 14.2c3.1 0 5.5-3.8 5.5-6.9 0-3-2.5-5.5-5.5-5.5S6.2 4.3 6.2 7.3c0 3.2 2.4 6.9 5.5 6.9zM62.7 13.3s-.1-.1-.2-.1l-2.8-1c-1.3 2-3.2 3.5-5.5 3.5-2.2 0-4.2-1.5-5.5-3.4l-2.8 1c-.1 0-.1 0-.2.1-1 .6-1.5 1.7-1.5 2.9v5.3c0 .4.3.7.7.7h18.4c.4 0 .7-.3.7-.7v-5.3c.3-1.3-.3-2.3-1.3-3z" fill="#ee5c30" class="color000000 svgShape"></path><path d="M54.3 14.2c3.1 0 5.5-3.8 5.5-6.9 0-3-2.5-5.5-5.5-5.5-3.1 0-5.5 2.5-5.5 5.5 0 3.2 2.4 6.9 5.5 6.9zM33.7 26.2l1.3 1.4c.3.3.7.3 1 0 .3-.3.3-.7 0-1l-2.6-2.7c-.1-.1-.3-.2-.5-.2s-.4.1-.5.2l-2.6 2.7c-.3.3-.3.8 0 1 .3.3.8.3 1 0l1.3-1.4v5.6c0 .4.3.7.7.7.4 0 .7-.3.7-.7v-5.6zM33 35.6c-.4 0-.7.3-.7.7v1c0 .4.3.7.7.7.4 0 .7-.3.7-.7v-1c0-.4-.3-.7-.7-.7zM33.7 33.4c0-.4-.3-.7-.7-.7-.4 0-.7.3-.7.7v1c0 .4.3.7.7.7.4 0 .7-.3.7-.7v-1zM49.2 32.4c.4.1.8-.1.9-.4l1.9-5.3.8 1.8c.2.4.6.5 1 .4.4-.2.5-.6.4-1-1.6-3.6-1.5-3.5-1.5-3.5-.2-.3-.6-.4-.7-.4-.3 0-3.4 1.6-3.7 1.7-.4.2-.5.6-.3 1s.6.5 1 .3l1.7-.9-1.9 5.3c-.2.5 0 .9.4 1zM47.2 35.7l-.3.9c-.1.4.1.8.4.9.4.1.8-.1.9-.4l.3-.9c.1-.4-.1-.8-.4-.9-.4-.2-.8 0-.9.4zM48.3 34.8c.4.1.8-.1.9-.4l.3-.9c.1-.4-.1-.8-.4-.9-.4-.1-.8.1-.9.4l-.3.9c-.2.4 0 .8.4.9zM16.8 34.4c.1.4.6.6.9.4.4-.1.6-.6.4-.9l-.3-.9c-.1-.4-.6-.6-.9-.4-.4.1-.6.6-.4.9l.3.9zM19.2 36.6l-.3-.9c-.1-.4-.6-.6-.9-.4-.4.1-.6.6-.4.9l.3.9c.1.4.6.6.9.4.3-.1.5-.5.4-.9zM18 26.7c.2-.4 0-.8-.3-1L14.3 24c-.1 0-.1 0-.2-.1h-.4c-.1 0-.2.1-.2.2-.1.1-.1.1-.1.2l-1.5 3.5c-.2.4 0 .8.4 1 .4.2.8 0 1-.4l.8-1.8 1.9 5.3c.1.4.6.6.9.4.4-.1.6-.6.4-.9l-1.9-5.3 1.7.9c.3.3.8.1.9-.3z" fill="#ee5c30" class="color000000 svgShape"></path></svg>