<svg xmlns="http://www.w3.org/2000/svg" viewBox="0 0 96 96" id="Stakeholder"><linearGradient id="a" x1="1034.068" x2="1058.495" y1="-455.638" y2="-485.816" gradientTransform="matrix(3.0757 0 0 -3.0757 -3169.776 -1399.474)" gradientUnits="userSpaceOnUse"><stop offset="0" stop-color="#fd3b00" class="stopColorfdd800 svgShape"></stop><stop offset="1" stop-color="#ee5c30" class="stopColorf26322 svgShape"></stop></linearGradient><path fill="url(#a)" d="M20.288 0h55.424C86.917 0 96 9.083 96 20.288v55.424C96 86.917 86.917 96 75.712 96H20.288C9.083 96 0 86.917 0 75.712V20.288C0 9.083 9.083 0 20.288 0z"></path><circle cx="56.999" cy="32.006" r=".5" fill="#f2f1f1" class="colorf1f2f2 svgShape"></circle><circle cx="63.999" cy="32.006" r=".5" fill="#f2f1f1" class="colorf1f2f2 svgShape"></circle><path fill="#f2f1f1" d="M61 40.508h-1a.5.5 0 0 0 0 1h1a.5.5 0 0 0 0-1zm1.264-2.544c-.852.709-2.509.709-3.36 0a.5.5 0 0 0-.64.769c.611.508 1.435.788 2.32.788s1.708-.28 2.32-.788a.5.5 0 0 0-.64-.769zM35 42.511h-1a.5.5 0 0 0 0 1h1a.5.5 0 0 0 0-1zm-2-5.5c0 .827.673 1.5 1.5 1.5s1.5-.673 1.5-1.5a.5.5 0 0 0-1 0 .5.5 0 0 1-1 0 .5.5 0 0 0-1 0zm4.841 3.369a.5.5 0 0 0-.64-.769c-1.365 1.137-3.995 1.137-5.36 0a.5.5 0 0 0-.64.769c.872.725 2.051 1.124 3.32 1.124s2.448-.4 3.32-1.124z" class="colorf1f2f2 svgShape"></path><path fill="#f2f1f1" d="M67.5 48.508h-.849l-2.642-1.761.004-1.403-.003-.015c2.867-.676 5.01-3.25 5.01-6.321v-2c0-.037-.013-.07-.021-.104v-1.396h.479c.827 0 1.5-.673 1.5-1.5v-3c0-.827-.673-1.5-1.5-1.5h-.502c-.251-4.463-3.951-8.019-8.476-8.019s-8.224 3.556-8.476 8.019H51.5c-.827 0-1.5.673-1.5 1.5v3c0 .827.673 1.5 1.5 1.5h.5v3.5c0 3.078 2.152 5.657 5.029 6.326l-.001.005-.004 1.385-2.676 1.784H52.5c-1.677 0-3.307.345-4.859 1.004a10.43 10.43 0 0 0-6.141-2.001h-3.507l.008-2.167 2.903-1.815a4.47 4.47 0 0 0 2.116-3.815v-.784c0-.037-.013-.07-.021-.104v-1.315h.479c.827 0 1.5-.673 1.5-1.5v-3c0-.827-.673-1.5-1.5-1.5h-.168l.53-2.647c.207-1.033.104-2.012-.296-2.83a4.474 4.474 0 0 0-4.043-2.522H29.468c-1.731 0-3.28.967-4.043 2.522-.4.817-.503 1.796-.296 2.829l.53 2.648H25.5c-.827 0-1.5.673-1.5 1.5v3c0 .827.673 1.5 1.5 1.5h.5v2.199c0 1.563.792 2.991 2.119 3.819l2.874 1.79.009 2.191H26.5c-5.79 0-10.5 4.71-10.5 10.5v16a.5.5 0 0 0 .5.5h35c.005 0 .009-.003.015-.003h5.947c.005 0 .009.003.014.003.005 0 .009-.003.015-.003h5.955c.005 0 .009.003.014.003.005 0 .009-.003.015-.003H79.5a.5.5 0 0 0 .5-.5v-13c0-6.892-5.607-12.499-12.5-12.499zm1.5-16.5v-1.5h.479a.5.5 0 0 1 .5.5v3a.5.5 0 0 1-.5.5H69v-2.5zm-17 0v2.5h-.5a.5.5 0 0 1-.5-.5v-3a.5.5 0 0 1 .5-.5h.5v1.5zm-9 3.503V33.06l.11-.549h.369a.5.5 0 0 1 .5.5v3a.5.5 0 0 1-.5.5H43v-1zm-17 0v1h-.5a.5.5 0 0 1-.5-.5v-3a.5.5 0 0 1 .5-.5h.358l.12.598c.004.021.016.038.022.058v2.344zm.108-6.844c-.114-.569-.169-1.412.214-2.194a3.482 3.482 0 0 1 3.146-1.962H39.5a3.48 3.48 0 0 1 3.145 1.962c.383.782.328 1.625.214 2.194l-.651 3.254-.739-.699a1.511 1.511 0 0 1-.469-1.09v-.121c0-.827-.673-1.5-1.5-1.5h-10c-.827 0-1.5.673-1.5 1.5v.152c0 .401-.156.778-.44 1.062l-.783.783-.669-3.341zm2.54 14.014A3.483 3.483 0 0 1 27 39.71V33.198l1.267-1.266c.473-.472.733-1.1.733-1.769v-.152a.5.5 0 0 1 .5-.5h10a.5.5 0 0 1 .5.5v.121c0 .683.285 1.345.781 1.815L42 33.101V38.93c0 .037.013.07.021.104v.679a3.479 3.479 0 0 1-1.646 2.968l-3.473 2.171a4.527 4.527 0 0 1-4.766.002l-3.488-2.173zm5.85 9.033c.987 0 1.876-.416 2.511-1.076v1.286a4.565 4.565 0 0 1-5.015.012v-1.29a3.476 3.476 0 0 0 2.504 1.068zm-2.502-5.807a5.516 5.516 0 0 0 2.522.622c.855 0 1.705-.208 2.482-.601l-.009 2.292c0 1.375-1.118 2.493-2.493 2.493s-2.493-1.118-2.493-2.495l-.009-2.311zM21.991 73.511c.002-.016.009-.029.009-.044V60.011a.5.5 0 0 0-1 0v13.456c0 .016.007.029.009.044H17v-15.5c0-5.238 4.262-9.5 9.5-9.5h1.183l-2.754 5.397a.5.5 0 0 0 .185.654l2.69 1.639-1.727 2.55a.493.493 0 0 0-.076.377l2.848 14.383h-6.858zm7.878 0-2.845-14.372 1.904-2.812a.5.5 0 0 0-.154-.707l-2.743-1.67 2.775-5.439h2.186L31 73.467c0 .016.007.029.009.044h-1.14zm2.122 0c.002-.016.009-.029.009-.044l-.006-20.361a5.45 5.45 0 0 0 2.499.603 5.45 5.45 0 0 0 2.516-.612l-.006 20.37c0 .016.007.029.009.044h-5.021zm6.003 0c.001-.015.009-.028.009-.044l.007-24.956h2.186l2.775 5.439-2.743 1.67a.5.5 0 0 0-.154.707l1.904 2.812-2.845 14.372h-1.139zm13.006 0h-4.009c.002-.016.009-.029.009-.044V60.011a.5.5 0 0 0-1 0v13.456c0 .016.007.029.009.044h-5.856l2.848-14.383a.498.498 0 0 0-.077-.377l-1.727-2.55 2.69-1.639a.5.5 0 0 0 .185-.654l-2.754-5.397h.182c2.187 0 4.198.75 5.806 1.997.27.209.528.43.771.663.013.012.027.023.039.036.26.252.505.516.733.792l.016.021c.203.247.389.506.564.77.075.114.143.234.214.351a8.8 8.8 0 0 1 .284.5c.073.14.14.283.206.427a9.118 9.118 0 0 1 .529 1.471c.039.143.079.286.111.431.046.212.08.428.112.644.018.12.042.238.055.36.038.342.06.688.06 1.038v15.499zm5.977-.003H52V58.011c0-.368-.02-.731-.057-1.09-.016-.156-.048-.308-.071-.462-.03-.198-.054-.399-.094-.593-.041-.197-.098-.388-.15-.581-.039-.146-.072-.294-.117-.437-.064-.204-.144-.402-.221-.601-.049-.127-.093-.255-.146-.379-.082-.191-.177-.375-.27-.56-.065-.129-.127-.26-.198-.386-.091-.164-.192-.322-.293-.481a11.257 11.257 0 0 0-.279-.429 9.489 9.489 0 0 0-.286-.382 10.375 10.375 0 0 0-.643-.76 10.643 10.643 0 0 0-.553-.551c-.033-.031-.062-.065-.096-.096a11.343 11.343 0 0 1 3.973-.715H54v4.5a.498.498 0 0 0 .5.5.495.495 0 0 0 .277-.084l2.219-1.479-.019 20.563zM57 51.74l-2 1.333v-3.798l2-1.333v3.798zm9-2.465v3.798l-2-1.333v-1.937l.006-1.857L66 49.275zm-5.5-26.786c3.974 0 7.226 3.108 7.476 7.019H62.5c-.695 0-1.276.477-1.445 1.12a1.471 1.471 0 0 0-.555-.122c-.196 0-.38.048-.555.12a1.499 1.499 0 0 0-1.445-1.118h-5.476c.25-3.911 3.502-7.019 7.476-7.019zm5.5 8.519v1c0 .827-.673 1.5-1.5 1.5h-1c-.827 0-1.5-.673-1.5-1.5v-1a.5.5 0 0 1 .5-.5h3a.5.5 0 0 1 .5.5zm-7 0v1c0 .827-.673 1.5-1.5 1.5h-1c-.827 0-1.5-.673-1.5-1.5v-1a.5.5 0 0 1 .5-.5h3a.5.5 0 0 1 .5.5zm-6 1v-1.5h1.092a1.483 1.483 0 0 0-.092.5v1c0 1.379 1.122 2.5 2.5 2.5h1c1.378 0 2.5-1.121 2.5-2.5v-.106c.154-.441.759-.553 1 .007v.099c0 1.379 1.122 2.5 2.5 2.5h1c1.378 0 2.5-1.121 2.5-2.5v-1c0-.176-.036-.343-.092-.5H68v4c0 1.103-.897 2-2 2h-1.5l-.008.002a2.492 2.492 0 0 0-1.991-1.005h-.506a.497.497 0 0 0-.995.026v.477a.5.5 0 0 1-1 0v-.475a.497.497 0 0 0-.995-.026H58.5c-.816 0-1.535.398-1.991 1.005l-.009-.002H55c-1.103 0-2-.897-2-2v-2.502zm9.961 41.5h-4.985l.016-17.106a3.449 3.449 0 0 0 2.507 1.09 3.45 3.45 0 0 0 2.478-1.06l-.016 17.076zm.019-18.658-.479.64a2.478 2.478 0 0 1-2.001 1.002 2.477 2.477 0 0 1-2.001-1.002l-.504-.674.001-.979.503.672A2.479 2.479 0 0 0 60.5 55.51a2.48 2.48 0 0 0 2.002-1.001l.479-.64-.001.981zm.029-7.873c-.001.011-.009.02-.009.031v2.788l-.007 2.153c-.002.019-.011.035-.011.054v.194L61.7 53.91c-.572.764-1.83.764-2.402 0l-1.291-1.726.02-6.7c.156.011.313.024.472.024h4.021c.166 0 .329-.013.492-.025l-.003 1.494zm-.488-2.469H58.5a5.506 5.506 0 0 1-5.5-5.5V36.728c.532.48 1.229.78 2 .78h1.05c-.032.161-.05.327-.05.497v.003a.5.5 0 1 0 1-.003c0-.827.673-1.5 1.5-1.5h.591c.206.582.757 1.003 1.409 1.003s1.203-.421 1.409-1.003h.591c.827 0 1.5.673 1.5 1.5v.003a.5.5 0 1 0 1-.003c0-.17-.018-.336-.05-.497H66a2.98 2.98 0 0 0 2-.78v1.199c0 .037.013.07.021.104v.977c0 3.032-2.467 5.5-5.5 5.5zm16.479 29h-6.009c.001-.016.009-.029.009-.045V60.008a.5.5 0 0 0-1 0v13.455c0 .016.008.029.009.045h-8.048l.018-18.422a.507.507 0 0 0 0-.178l.002-1.977 2.241 1.494a.495.495 0 0 0 .513.024.502.502 0 0 0 .265-.441v-4.5h.5c6.341 0 11.5 5.159 11.5 11.5v12.5z" class="colorf1f2f2 svgShape"></path><circle cx="31.02" cy="34.499" r="1" fill="#f2f1f1" class="colorf1f2f2 svgShape"></circle><path fill="#f2f1f1" d="M32.604 33.303a.498.498 0 0 0 .7.101.5.5 0 0 0 .102-.699 3.013 3.013 0 0 0-2.368-1.205c-.03 0-.06-.001-.088.003a2.973 2.973 0 0 0-2.279 1.201.499.499 0 1 0 .801.597 1.99 1.99 0 0 1 1.566-.802 1.991 1.991 0 0 1 1.566.804z" class="colorf1f2f2 svgShape"></path><circle cx="38.02" cy="34.499" r="1" fill="#f2f1f1" class="colorf1f2f2 svgShape"></circle><path fill="#f2f1f1" d="M36.471 33.302a1.99 1.99 0 0 1 1.566-.802 1.984 1.984 0 0 1 1.566.803.498.498 0 0 0 .7.101.5.5 0 0 0 .102-.699 3.013 3.013 0 0 0-2.368-1.205c-.029 0-.06-.001-.088.003a2.973 2.973 0 0 0-2.279 1.201.5.5 0 1 0 .801.598z" class="colorf1f2f2 svgShape"></path></svg>