<svg xmlns="http://www.w3.org/2000/svg" viewBox="0 0 129 129" id="Trust"><circle cx="64.5" cy="65.8" r="62.7" fill="#e2e0e0" class="colore1e0e2 svgShape"></circle><path fill="#c3816d" d="M100.5 22.9S95.7 67.8 65.4 88C35.1 67.8 30.3 22.9 30.3 22.9 56.8 15.3 65.4 1.2 65.4 1.2s8.6 14.1 35.1 21.7z" class="color6dc392 svgShape"></path><path fill="#653d31" d="M65.4 88.7c-.1 0-.3 0-.4-.1C34.8 68.4 29.6 23.4 29.6 23c0-.4.2-.7.5-.8C56 14.8 64.7 1 64.8.9c.1-.2.4-.4.6-.4.3 0 .5.1.6.4.1.1 8.8 14 34.7 21.3.3.1.6.4.5.8 0 .5-5.2 45.5-35.4 65.6-.1.1-.3.1-.4.1zM31.1 23.4c.7 5.4 6.9 45.1 34.3 63.7C92.8 68.5 99 28.8 99.7 23.4 77.3 16.9 67.8 5.8 65.4 2.5 63 5.8 53.5 16.9 31.1 23.4z" class="color313d65 svgShape"></path><path fill="#ffffff" d="M65.4 83.2c-22.1-16.4-29-47.5-30.7-57.5 16.8-5.4 26.2-13.4 30.7-18.2 4.5 4.8 13.9 12.8 30.7 18.2-1.7 10-8.6 41.1-30.7 57.5z" class="colorffffff svgShape"></path><path fill="#653d31" d="M65.4 83.9c-.2 0-.3 0-.4-.1-22.5-16.6-29.4-48.6-31-58-.1-.4.2-.7.5-.8 17-5.5 26.3-13.6 30.4-18 .1-.1.3-.2.5-.2s.4.1.5.2c4.1 4.4 13.4 12.5 30.4 18 .3.1.6.5.5.8-1.6 9.4-8.5 41.4-31 58-.1.1-.2.1-.4.1zM35.5 26.2c1.8 9.9 8.7 40.1 29.9 56.1 21.2-16.1 28.1-46.2 29.9-56.1-16.2-5.4-25.5-13.1-29.9-17.7-4.4 4.6-13.7 12.3-29.9 17.7z" class="color313d65 svgShape"></path><circle cx="65.4" cy="44.6" r="18.1" fill="#ee5c30" class="colorf26a64 svgShape"></circle><path fill="#653d31" d="M65.4 63.5C55 63.5 46.5 55 46.5 44.6c0-10.4 8.5-18.9 18.9-18.9 10.4 0 18.9 8.5 18.9 18.9 0 10.4-8.5 18.9-18.9 18.9zm0-36.3C55.8 27.2 48 35 48 44.6 48 54.2 55.8 62 65.4 62c9.6 0 17.4-7.8 17.4-17.4 0-9.6-7.8-17.4-17.4-17.4z" class="color313d65 svgShape"></path><path fill="#ffffff" d="M62.4 53.2c-.5 0-1-.2-1.4-.6l-5.3-5.3c-.8-.8-.8-2 0-2.8s2-.8 2.8 0l3.9 3.9 11.8-11.8c.8-.8 2-.8 2.8 0 .8.8.8 2 0 2.8L63.8 52.6c-.4.4-.9.6-1.4.6z" class="colorffffff svgShape"></path><path fill="#653d31" d="M62.4 53.9c-.7 0-1.4-.3-1.9-.8l-5.3-5.3c-1.1-1.1-1.1-2.8 0-3.8s2.8-1 3.8 0l3.4 3.4 11.3-11.3c1.1-1.1 2.8-1.1 3.8 0 1.1 1.1 1.1 2.8 0 3.8L64.3 53.1c-.5.5-1.2.8-1.9.8zm-5.3-9.2c-.3 0-.6.1-.9.4-.5.5-.5 1.3 0 1.7l5.3 5.3c.5.5 1.3.5 1.7 0l13.2-13.2c.5-.5.5-1.3 0-1.7-.5-.5-1.3-.5-1.7 0L62.9 49c-.3.3-.8.3-1 0L58 45.1c-.2-.3-.5-.4-.9-.4z" class="color313d65 svgShape"></path><path fill="#f08c6e" d="M91.7 107.8c-1.6 1.5-4.2 1.3-5.8-.3l-.1-.1c1.6 1.6 1.6 4.2 0 5.8-.6.6-1.3.9-2 1.1-.9.5-2.2.6-4 .3 0 2.1-1.1 2.5-1.6 3.5-.6 1-1.8 1.6-4.4 1.1 0 0-.5 2.3-1.3 3.1-1.6 1.6-4.2 1.6-5.8 0l-4.4-4.4c-6.5-3.3-21.1-10.5-30.3-13.5l5.7-22.8s1.9 2.6 12.8-4.4c2.5-1.6 3.2-3.8 10.1-3.6 1 0 2-.1 3-.3l3.8-.9c4.6-1.3 6.6.6 12.7 1.3 1.6.2 2.8 1.6 2.7 3.2-.1 2.1-2.1 3.5-4.1 2.8-5.6-1.8-15.2-4.7-16-2.7l2.2 10.1S72.1 91.2 79 95l.6-.6c1.3-1.3 3.4-1.3 4.7 0l7.2 7.2c.1.1.2.1.2.2v.1c1.8 1.6 1.7 4.3 0 5.9z" class="colorf0de6e svgShape"></path><path fill="#653d31" d="m66.2 122.8-4.3-4.3c-6.1-3.1-20.9-10.4-30.1-13.4-.4-.1-.6-.5-.5-.9L37 81.3c.1-.3.3-.5.6-.5.3-.1.6 0 .7.3 0 0 2.2 1.6 11.8-4.6 2.4-1.6 3.3-3.9 10.5-3.7 1 0 1.9-.1 2.8-.3l3.8-.9c4.8-1.2 7 .8 12.9 1.5 2 .2 3.5 2 3.4 4-.1 1.3-.7 2.3-1.6 3-1 .7-2.2.9-3.4.5-10.2-3.4-14.1-3.6-15-3.2l2 9.4c1.4.8 7.4 4.2 13.4 7.5l.2-.2c1.6-1.6 4.2-1.6 5.8 0l7.3 7.3.3.3c1.8 1.9 1.7 5-.3 6.8-1.2 1.1-2.9 1.4-4.5 1 .3 1.5-.1 3.2-1.3 4.4-1.1 1.1-3.3 2-5.9 1.7-.2 1-.6 1.9-1.3 2.6l-.6-.4.5.5c-.1.1-.2.2-.2.3-.6 1-1.8 2-4.5 1.5-.2.8-.7 2.1-1.3 2.8-2 1.7-5 1.7-6.9-.1zm-33.3-19c9.3 3.1 23.8 10.3 29.7 13.3.1 0 .1.1.2.1l4.4 4.4c1.3 1.3 3.4 1.3 4.7 0 .4-.4.9-1.9 1.1-2.7 0-.2.2-.4.3-.5.2-.1.4-.1.6-.1 1.8.4 3 .2 3.6-.7.6-1 1.6-1.3 1.5-3.1 0-.2.1-.4.3-.6.2-.1.4-.2.6-.2 1.5.3 2.7.2 3.5-.2.1 0 .1-.1.2-.1.6-.1 1.2-.4 1.7-.9 1.3-1.3 1.3-3.4 0-4.7-.3-.3-.3-.8 0-1 .3-.3.7-.3 1 0 1.4 1.4 3.5 1.5 4.8.3 1.4-1.3 1.5-3.5.1-4.9 0 0 0-.1-.1-.1v-.1l-.1-.1-7.1-6.9c-1-1-2.7-1-3.7 0l-.6.6c-.2.2-.6.3-.9.1-6.9-3.8-14.1-7.8-14.1-7.9-.2-.1-.3-.3-.4-.5L62 77.2v-.4c.4-.8 1.2-2.8 16.9 2.3.7.2 1.5.1 2.1-.3.6-.4 1-1.1 1-1.8.1-1.3-.8-2.3-2.1-2.5-6-.7-8.1-2.6-12.4-1.5l-3.8.9c-1 .3-2.1.4-3.2.3-6.6-.1-7.1 1.8-9.7 3.5-7.6 4.9-11.1 5.3-12.7 4.9l-5.2 21.2z" class="color313d65 svgShape"></path><path fill="#ffffff" d="M25.7 79.3h10.9v27.2H25.7z" transform="rotate(10.58 31.146 92.91)" class="colorffffff svgShape"></path><path fill="#653d31" d="M34 108h-.1l-10.8-2c-.4-.1-.7-.5-.6-.9l5-26.7c0-.2.1-.4.3-.5.2-.1.4-.2.6-.1l10.8 2c.4.1.7.5.6.9l-5 26.7c0 .2-.1.4-.3.5-.2.1-.3.1-.5.1zm-9.9-3.3 9.3 1.7 4.7-25.3-9.3-1.7-4.7 25.3z" class="color313d65 svgShape"></path><path fill="#f08c6e" d="m85.8 107.4-8.2-8.1" class="colorf0de6e svgShape"></path><path fill="#653d31" d="M85.8 108.2c-.2 0-.4-.1-.5-.2l-8.2-8.2c-.3-.3-.3-.8 0-1 .3-.3.8-.3 1 0l8.2 8.2c.3.3.3.8 0 1-.1.1-.3.2-.5.2z" class="color313d65 svgShape"></path><path fill="#f08c6e" d="m79.8 114.6-9.4-9.4" class="colorf0de6e svgShape"></path><path fill="#653d31" d="M79.8 115.3c-.2 0-.4-.1-.5-.2l-9.4-9.4c-.3-.3-.3-.8 0-1s.8-.3 1 0l9.4 9.4c.3.3.3.8 0 1-.1.2-.3.2-.5.2z" class="color313d65 svgShape"></path><path fill="#f08c6e" d="m73.8 119.1-5.8-5.7" class="colorf0de6e svgShape"></path><path fill="#653d31" d="M73.8 119.9c-.2 0-.4-.1-.5-.2l-5.8-5.8c-.3-.3-.3-.8 0-1s.8-.3 1 0l5.8 5.8c.3.3.3.8 0 1-.1.1-.3.2-.5.2z" class="color313d65 svgShape"></path><path fill="#f08c6e" d="M99.7 74.8v23.6s-5.6.7-5.6 1.3l-.1.1c-1.2 2.3-4 3.1-6.2 1.8-4.6-2.6-16.3-9.3-22.6-14.2-.2-.1-.4-.1-.5.1-1.1 1.6-1.5 3.5-1.2 5.4.2 1.2.1 2.7-.4 4.7 0 0-.8 6-4.2 5.9-1.1 0-2.1-.9-2.4-1.9l-3.3-10.1c-.5-1.4-.2-3 .6-4.2l6.3-8.8c1.3-1.9 3.6-2.8 5.8-2.5 3 .5 7.8 1.4 13.6 3.2.8.3 1.6.3 2.4.3 1.5-.1 4-.5 6.5-1.8 1-.5 2.1-1 3.2-1.2 2.8-.8 7.5-1.8 8.1-1.7z" class="colorf0de6e svgShape"></path><path fill="#653d31" d="M59.1 104.1h-.2c-1.4-.1-2.6-1-3.1-2.5l-3.3-10.1c-.5-1.6-.3-3.5.8-4.9l6.3-8.8c1.5-2.1 4-3.1 6.5-2.8 3 .4 7.8 1.4 13.7 3.3.7.2 1.4.3 2.1.3 1.6-.1 3.9-.5 6.2-1.7 1.2-.6 2.3-1.1 3.4-1.3 7.4-1.6 8-1.6 8.2-1.5.4 0 .6.4.6.7v23.6c0 .4-.3.7-.6.7-2 .2-4.4.7-5 .9-.6 1.3-1.7 2.2-3.1 2.6-1.4.4-2.9.2-4.1-.4-4.6-2.6-15.9-9.1-22.4-14-.8 1.3-1.1 2.9-.9 4.5.2 1.5 0 3.1-.4 4.9 0 .3-.9 6.5-4.7 6.5zm6-27.6c-1.7 0-3.3.8-4.3 2.2l-6.3 8.8c-.7 1-.9 2.3-.5 3.5l3.3 10.1c.3.8 1 1.4 1.8 1.4h.1c2.5 0 3.3-5.2 3.3-5.2.4-1.7.6-3.2.4-4.5-.3-2.2.2-4.3 1.4-5.9.2-.2.4-.4.7-.4.3 0 .6 0 .8.2 6.3 4.9 17.9 11.5 22.5 14.2.9.5 2 .6 3 .3s1.7-.9 2.2-1.8c.1-.5.6-1.1 5.6-1.7V75.6c-1 .2-3.2.6-7 1.4-1 .2-2 .6-3 1.2-2.5 1.3-5.1 1.8-6.8 1.9-.9.1-1.8 0-2.7-.3-5.8-1.9-10.5-2.8-13.4-3.2-.5-.1-.8-.1-1.1-.1z" class="color313d65 svgShape"></path><path fill="#f08c6e" d="M68.5 114.4a3.32 3.32 0 0 0-4.7 0l-5.7 5.7a3.32 3.32 0 0 0 0 4.7c1.3 1.3 3.4 1.3 4.7 0l5.7-5.7c1.4-1.3 1.4-3.4 0-4.7z" class="colorf0de6e svgShape"></path><path fill="#653d31" d="M57.6 125.3c-1.6-1.6-1.6-4.2 0-5.8l5.7-5.7c1.6-1.6 4.2-1.6 5.8 0 1.6 1.6 1.6 4.2 0 5.8l-5.7 5.7c-1.6 1.6-4.2 1.6-5.8 0zm6.7-10.4-5.7 5.7c-1 1-1 2.7 0 3.7s2.7 1 3.7 0l5.7-5.7c1-1 1-2.7 0-3.7s-2.6-1-3.7 0z" class="color313d65 svgShape"></path><path fill="#f08c6e" d="M64.4 109.1a3.32 3.32 0 0 0-4.7 0l-6.2 6.2a3.32 3.32 0 0 0 0 4.7c1.3 1.3 3.4 1.3 4.7 0l6.2-6.2c1.3-1.3 1.3-3.4 0-4.7z" class="colorf0de6e svgShape"></path><path fill="#653d31" d="M52.9 120.6c-1.6-1.6-1.6-4.2 0-5.8l6.2-6.2c1.6-1.6 4.2-1.6 5.8 0 1.6 1.6 1.6 4.2 0 5.8l-6.2 6.2c-1.6 1.6-4.2 1.6-5.8 0zm7.3-11-6.2 6.2c-1 1-1 2.7 0 3.7s2.7 1 3.7 0l6.2-6.2c1-1 1-2.7 0-3.7s-2.7-1-3.7 0z" class="color313d65 svgShape"></path><path fill="#f08c6e" d="M59.7 104.5a3.32 3.32 0 0 0-4.7 0l-6.2 6.2a3.32 3.32 0 0 0 0 4.7c1.3 1.3 3.4 1.3 4.7 0l6.2-6.2c1.3-1.3 1.3-3.4 0-4.7z" class="colorf0de6e svgShape"></path><path fill="#653d31" d="M48.3 115.9c-1.6-1.6-1.6-4.2 0-5.8l6.2-6.2c1.6-1.6 4.2-1.6 5.8 0 1.6 1.6 1.6 4.2 0 5.8l-6.2 6.2c-1.7 1.6-4.3 1.6-5.8 0zm7.2-10.9-6.2 6.2c-1 1-1 2.7 0 3.7s2.7 1 3.7 0l6.2-6.2c1-1 1-2.7 0-3.7-1.1-1-2.7-1-3.7 0z" class="color313d65 svgShape"></path><path fill="#f08c6e" d="M54.1 100.7a3.32 3.32 0 0 0-4.7 0l-5.3 5.3a3.32 3.32 0 0 0 0 4.7c1.3 1.3 3.4 1.3 4.7 0l5.3-5.3c1.3-1.3 1.3-3.4 0-4.7z" class="colorf0de6e svgShape"></path><path fill="#653d31" d="M43.6 111.2c-1.6-1.6-1.6-4.2 0-5.8l5.3-5.3c1.6-1.6 4.2-1.6 5.8 0 1.6 1.6 1.6 4.2 0 5.8l-5.3 5.3c-1.7 1.6-4.2 1.6-5.8 0zm6.3-10-5.3 5.3c-1 1-1 2.7 0 3.7s2.7 1 3.7 0l5.3-5.3c1-1 1-2.7 0-3.7s-2.7-1-3.7 0z" class="color313d65 svgShape"></path><path fill="#ffffff" d="M99.2 73h10.9v27.2H99.2z" class="colorffffff svgShape"></path><path fill="#653d31" d="M110.2 100.9h-11c-.4 0-.7-.3-.7-.7V73c0-.4.3-.7.7-.7h10.9c.4 0 .7.3.7.7v27.2c.1.4-.2.7-.6.7zM100 99.4h9.5V73.7H100v25.7z" class="color313d65 svgShape"></path><path fill="#ecab97" d="M105.3 71.3h16.3v30.5h-16.3z" class="color97d9ec svgShape"></path><path fill="#653d31" d="M121.7 102.6h-16.3c-.4 0-.7-.3-.7-.7V71.3c0-.4.3-.7.7-.7h16.3c.4 0 .7.3.7.7v30.5c0 .4-.3.8-.7.8zm-15.6-1.5H121V72h-14.9v29.1z" class="color313d65 svgShape"></path><path fill="#ecab97" d="M11.1 75h16.3v30.5H11.1z" transform="rotate(10.58 19.255 90.222)" class="color97d9ec svgShape"></path><path fill="#653d31" d="M24.5 107.5h-.1l-16.1-3c-.4-.1-.7-.5-.6-.9l5.6-30c0-.2.1-.4.3-.5.2-.1.4-.1.6-.1l16.1 3c.4.1.7.5.6.9l-5.6 30c0 .2-.1.4-.3.5-.2 0-.4.1-.5.1zm-15.2-4.3 14.6 2.7 5.3-28.6-14.6-2.7-5.3 28.6z" class="color313d65 svgShape"></path><circle cx="109.5" cy="97.7" r="1.4" fill="#653d31" class="color313d65 svgShape"></circle><path fill="#653d31" d="M109.5 99.8c-1.2 0-2.1-.9-2.1-2.1 0-1.2.9-2.1 2.1-2.1 1.2 0 2.1.9 2.1 2.1.1 1.1-.9 2.1-2.1 2.1zm0-2.8c-.4 0-.6.3-.6.6s.3.6.6.6c.4 0 .6-.3.6-.6s-.2-.6-.6-.6z" class="color313d65 svgShape"></path><circle cx="21" cy="101.8" r="1.4" fill="#653d31" class="color313d65 svgShape"></circle><path fill="#653d31" d="M21 103.9c-1.2 0-2.1-.9-2.1-2.1 0-1.2.9-2.1 2.1-2.1 1.2 0 2.1.9 2.1 2.1 0 1.2-.9 2.1-2.1 2.1zm0-2.7c-.4 0-.6.3-.6.6s.3.6.6.6c.4 0 .6-.3.6-.6s-.2-.6-.6-.6z" class="color313d65 svgShape"></path></svg>